<?xml version="1.0" standalone="no"?>
<!DOCTYPE svg PUBLIC "-//W3C//DTD SVG 1.1//EN" "http://www.w3.org/Graphics/SVG/1.1/DTD/svg11.dtd" >
<!--
2013-9-30: Created.
-->
<svg>
<metadata>
Created by iconfont
</metadata>
<defs>

<font id="iconfont" horiz-adv-x="1024" >
  <font-face
    font-family="iconfont"
    font-weight="500"
    font-stretch="normal"
    units-per-em="1024"
    ascent="896"
    descent="-128"
  />
    <missing-glyph />
    
    <glyph glyph-name="home1" unicode="&#58904;" d="M994.095104 332.362496 563.372032 757.674752c-2.14016 2.54976-6.93248 6.995968-13.586432 11.382784-11.196416 7.389184-23.887872 11.880448-37.810176 11.880448-14.874624 0-27.869184-4.513792-38.77888-11.997184-6.602752-4.524032-11.147264-9.148416-13.723648-12.593152L29.906944 332.305152c-16.594944-16.347136-16.594944-42.917888 0-59.303936 16.461824-16.287744 38.36928-9.418752 57.0368 8.97024l28.903424 28.581888L513.165312 695.515904l423.903232-416.909312c22.736896-14.977024 42.776576-19.685376 57.032704-5.603328C1010.688 289.387264 1010.688 315.972352 994.095104 332.362496L994.095104 332.362496zM432.13824-113.184c0 80.001024 0 213.426176 0 213.426176 0 19.72224 16.269312 35.772416 36.374528 35.772416l86.972416 0c20.11136 0 36.37248-16.050176 36.37248-35.772416 0 0 0-133.236736 0-213.256192M763.588608-183.670016c56.987648 0 103.213056 45.643776 103.213056 102.096896l0 401.48992c-0.1536 19.666944-16.171008 35.424256-35.844096 35.424256l0 0c-19.695616 0-35.74784-15.79008-35.825664-35.3792l0-0.100352 0-0.098304 0-396.607488c0-19.728384-16.273408-35.794944-36.37248-35.794944l-95.275008 0L663.484416 105.026304c0 56.430592-46.204928 102.070272-103.215104 102.070272l-96.5632 0c-56.993792 0-103.213056-45.64992-103.213056-102.070272l0-217.665536-95.275008 0c-20.099072 0-36.37248 16.06656-36.37248 35.794944L228.845568 319.83488c-0.038912 19.6608-16.101376 35.506176-35.79904 35.506176-19.730432 0-35.774464-15.818752-35.854336-35.457024l0-401.457152c0-56.457216 46.215168-102.096896 103.2192-102.096896l159.95904 0M592.896-183.670016"  horiz-adv-x="1024" />

    
    <glyph glyph-name="fuzhi" unicode="&#58907;" d="M731.68184 135.942527 731.68184 628.676741c0 30.233582-24.512277 54.745858-54.747905 54.745858L184.216093 683.422599c-30.233582 0-54.746882-24.512277-54.746882-54.745858l0-492.734214c0-30.207999 24.5133-54.746882 54.746882-54.746882l492.717841 0C707.16854 81.195645 731.68184 105.734528 731.68184 135.942527zM622.1891 135.942527 238.962975 135.942527c-30.233582 0-54.746882 24.538883-54.746882 54.745858L184.216093 573.92986c0 30.233582 24.5133 54.746882 54.746882 54.746882l383.226125 0c30.233582 0 54.744835-24.512277 54.744835-54.746882l0-383.242498C676.933935 160.48141 652.421658 135.942527 622.1891 135.942527zM841.17458 519.182978l-54.745858 0 0-54.746882c30.232558 0 54.745858-24.5133 54.745858-54.759161l0-383.228171c0-30.206976-24.5133-54.745858-54.745858-54.745858L403.201573-28.297095c-30.233582 0-54.746882 24.538883-54.746882 54.745858l-54.746882 0 0-54.745858c0-30.207999 24.5133-54.747905 54.746882-54.747905l492.719888 0c30.234605 0 54.747905 24.539906 54.747905 54.747905L895.922485 464.436096C895.922485 494.670701 871.408161 519.182978 841.17458 519.182978z"  horiz-adv-x="1024" />

    
    <glyph glyph-name="user" unicode="&#59275;" d="M784.328704 201.478912c62.380032 45.303808 103.417856 121.972736 103.417856 209.09056 0 141.135872-108.347392 256.135168-241.313792 256.135168-24.354816 0-47.814656-3.893248-69.912576-11.053056-43.350016 68.663296-117.116928 113.999872-200.593408 113.999872-132.970496 0-239.673344-114.999296-239.673344-254.39232 0-87.12192 41.037824-163.786752 103.421952-209.09056C98.494464 246.928128 0 102.308608 0-66.70464l67.303424 0c0 167.272448 119.83872 306.663424 272.504832 325.828608 1.644544 0 42.682368 3.485696 77.156352 0l3.284992 0c14.333952-2.17088 28.336128-5.431296 41.965568-9.617408 13.922304-17.678336 30.058496-33.277952 47.96416-46.282752-141.176832-59.242496-239.669248-203.862016-239.669248-372.875264l67.303424 0c0 167.272448 119.834624 306.663424 272.504832 325.832704 1.640448 0 42.682368 3.4816 77.152256 0l3.282944 0c149.385216-22.654976 264.296448-158.560256 264.296448-324.089856L1024-167.908608C1022.359552-0.638208 923.860992 143.979264 784.328704 201.478912zM375.926784 323.595008c-100.13696 0-180.578304 85.379072-180.578304 191.664128 0 106.289152 80.441344 191.664128 180.578304 191.664128 59.82208 0 112.5888-30.492672 145.399808-77.688832-68.85376-44.93312-114.56512-125.698048-114.56512-216.92416 0-29.10208 4.601856-57.02656 13.02528-83.017728C405.751808 325.61024 391.07584 323.595008 375.926784 323.595008zM646.432768 220.648192c-100.13696 0-180.574208 85.379072-180.574208 191.664128 0 67.72736 32.688128 126.920704 82.292736 160.989184 0.047104-0.157696 0.100352-0.311296 0.147456-0.468992 2.172928 1.671168 4.376576 3.29728 6.6048 4.892672 26.804224 16.674816 58.054656 26.257408 91.531264 26.257408 100.139008 0 180.574208-85.379072 180.574208-191.670272C827.006976 306.027264 746.569728 220.648192 646.432768 220.648192z"  horiz-adv-x="1024" />

    
    <glyph glyph-name="user1" unicode="&#59008;" d="M512 812C230.4 812 0 581.6 0 300 0 18.4 230.4-212 512-212c281.6 0 512 230.399 512 512C1024 581.6 793.6 812 512 812zM512-148C262.4-148 64 50.4 64 300 64 549.6 262.4 748 512 748c249.6 0 448-198.4 448-448C960 50.4 761.6-148 512-148zM512 652C390.4 652 288 549.6 288 428 288 306.4 390.4 204 512 204c121.6 0 224 102.399 224 224C736 549.6 633.6 652 512 652zM512 268C422.4 268 352 338.4 352 428c0 89.6 70.399 160 160 160 89.6 0 160-70.4 160-160C672 338.4 601.6 268 512 268zM204.8-39.2C236.8 101.6 364.8 204 512 204c147.199 0 275.199-102.4 307.199-243.2l64 0C844.8 133.6 691.199 268 505.6 268S166.4 140 128-39.2L204.8-39.2z"  horiz-adv-x="1024" />

    
    <glyph glyph-name="cc-plus-square" unicode="&#59017;" d="M898.609-14.363c6.262 6.28 10.262 14.841 10.262 24.543l0 724.896c0 9.121-4 18.242-10.262 24.542l0 0c-6.281 6.262-14.821 9.7-24.524 9.7l0 0-724.112 0c-9.691 0-18.244-3.439-24.513-9.7l0 0c-6.271-6.3-9.692-15.422-9.692-24.542l0-724.895c0-9.702 3.421-18.264 9.692-24.543 6.27-6.281 14.823-10.28 24.513-10.28l0 0 724.112 0c9.702-0.001 18.242 3.999 24.524 10.279l0 0zM292.523 398.302l193.848 0 0 194.078c0 13.683 11.413 25.663 25.666 25.663l0 0c14.241 0 25.662-11.981 25.662-25.663l0-194.079 193.848 0c14.261 0 25.662-11.421 25.662-25.683l0 0c0-14.262-11.403-25.683-25.662-25.683l-193.849 0 0-194.06c0-14.281-11.421-25.684-25.662-25.684l0 0c-14.253 0-25.666 11.403-25.666 25.684l0 194.06-193.847 0c-13.691 0-25.662 11.421-25.662 25.683l0 0c0 14.262 11.972 25.684 25.662 25.684l0 0zM149.973 821.264l724.112 0c23.942 0 45.606-9.701 61.007-25.123 15.405-15.981 25.085-37.683 25.085-61.065l0-724.895c0-23.982-9.68-45.665-25.085-61.085l0 0c-15.402-15.402-37.065-25.103-61.007-25.103l0 0-724.112 0c-23.373 0-45.037 9.701-60.999 25.103l0 0c-15.402 15.42-25.092 37.104-25.092 61.085l0 724.895c0 23.383 9.692 45.085 25.092 61.065l0 0c15.963 15.422 37.626 25.123 60.999 25.123l0 0z"  horiz-adv-x="1024" />

    
    <glyph glyph-name="right-1" unicode="&#58896;" d="M511.945-62.713c-247.066 0-448.054 200.988-448.054 448.060 0 247.066 200.988 448.054 448.054 448.054 247.073 0 448.060-200.988 448.060-448.054 0-247.072-200.989-448.060-448.060-448.060v0zM511.945 769.107c-211.608 0-383.758-172.151-383.758-383.758 0-211.581 172.151-383.765 383.758-383.765 211.581 0 383.765 172.185 383.765 383.765-0.001 211.608-172.186 383.758-383.765 383.758v0zM726.948 504.175c-12.545 12.448-32.837 12.322-45.249-0.254l-233.311-235.869-103.28 106.122c-12.35 12.707-32.612 12.932-45.249 0.64-12.678-12.322-12.965-32.612-0.64-45.251l126.032-129.522c0.064-0.093 0.19-0.093 0.254-0.19 0.064-0.064 0.097-0.191 0.161-0.254 2.017-1.988 4.512-3.204 6.881-4.547 1.25-0.674 2.241-1.793 3.52-2.305 3.873-1.601 8-2.398 12.096-2.398 4.063 0 8.131 0.796 11.969 2.334 1.25 0.513 2.208 1.539 3.394 2.178 2.398 1.344 4.898 2.525 6.945 4.542 0.063 0.064 0.098 0.196 0.19 0.259 0.064 0.094 0.161 0.128 0.259 0.191l256.254 259.042c12.452 12.608 12.32 32.865-0.226 45.282v0zM726.948 504.175z"  horiz-adv-x="1025" />

    
    <glyph glyph-name="sousuo" unicode="&#58910;" d="M688.565345 242.099153c0 0-11.672854-15.440667-27.297716-30.575366l179.917696-176.300308 29.860075 27.91784L688.565345 242.099153 688.565345 242.099153zM752.457514 433.213865c0-175.017082-134.816498-306.400389-301.919331-306.400389C276.296767 129.344113 149.950174 266.551054 149.950174 432.978505c0 160.758334 135.995347 296.318776 300.588009 296.318776C617.641015 729.29728 752.457514 591.974705 752.457514 433.213865L752.457514 433.213865zM449.439152 689.132512c-143.231145 0-259.32421-116.181069-259.32421-261.075087 0-144.898111 116.093065-261.882476 259.32421-261.882476 143.250588 0 262.8495 116.984365 262.8495 261.882476C712.288652 572.951443 592.68974 689.132512 449.439152 689.132512L449.439152 689.132512zM449.439152 689.132512"  horiz-adv-x="1024" />

    
    <glyph glyph-name="play" unicode="&#59586;" d="M810.4 430.2 253.6 761.6c-6.8 4-13.8 6.4-21.8 6.4-21.8 0-39.6-18-39.6-40L192 728l0-688 0.2 0c0-22 17.8-40 39.6-40 8.2 0 15 2.8 22.4 6.8l556.2 331c13.2 11 21.6 27.6 21.6 46.2C832 402.6 823.6 419 810.4 430.2z"  horiz-adv-x="1024" />

    
    <glyph glyph-name="plus2" unicode="&#58917;" d="M251.889 395.223h526.223v-28.444h-526.223v28.444zM500.777 644.111h28.444v-526.223h-28.444v526.223zM933.067-107.067h-836.135c-38.598 0-70 31.402-70 70l-0 836.135c0 38.598 31.402 70 70 70h836.135c38.598 0 70-31.402 70-70v-836.135c0-38.598-31.402-70-70-70zM96.932 835.068c-19.851 0-36-16.149-36-36v-836.135c0-19.851 16.149-36 36-36h836.135c19.851 0 36 16.149 36 36v836.135c0 19.851-16.149 36-36 36h-836.135z"  horiz-adv-x="1024" />

    
    <glyph glyph-name="reduce2" unicode="&#58920;" d="M251.889 395.223h526.223v-28.444h-526.223v28.444zM933.067-107.067h-836.135c-38.598 0-70 31.402-70 70l-0 836.135c0 38.598 31.402 70 70 70h836.135c38.598 0 70-31.402 70-70v-836.135c0-38.598-31.402-70-70-70zM96.932 835.068c-19.851 0-36-16.149-36-36v-836.135c0-19.851 16.149-36 36-36h836.135c19.851 0 36 16.149 36 36v836.135c0 19.851-16.149 36-36 36h-836.135z"  horiz-adv-x="1024" />

    
    <glyph glyph-name="yuancircle46" unicode="&#59229;" d="M229.76512 101.76512c155.61728-155.61728 408.84224-155.61728 564.45952 0s155.61728 408.84224 0 564.45952-408.84224 155.61728-564.45952 0S74.14784 257.39264 229.76512 101.76512zM260.73088 635.27936c138.55744 138.55744 364.00128 138.55744 502.55872 0 138.53696-138.5472 138.53696-364.00128 0-502.55872-138.55744-138.5472-364.02176-138.5472-502.55872 0C122.17344 271.27808 122.17344 496.73216 260.73088 635.27936z"  horiz-adv-x="1024" />

    
    <glyph glyph-name="duihaocheckmark17" unicode="&#59248;" d="M730.688 566.88 432 268.192l-138.656 138.688c-12.192 12.192-32 12.192-44.192 0-12.192-12.192-12.192-32 0-44.192l156.96-156.96c1.056-1.504 1.696-3.232 3.04-4.576 6.304-6.304 14.592-9.216 22.848-8.992 8.256-0.192 16.576 2.688 22.88 8.992 1.344 1.344 1.984 3.072 3.04 4.576l316.96 316.96c12.192 12.192 12.192 32 0 44.192C762.656 579.072 742.88 579.072 730.688 566.88zM512 896C229.216 896 0 666.784 0 384c0-282.784 229.216-512 512-512 282.752 0 512 229.216 512 512C1024 666.784 794.784 896 512 896zM512-64C264.576-64 64 136.576 64 384 64 631.424 264.576 832 512 832c247.424 0 448-200.576 448-448C960 136.576 759.424-64 512-64z"  horiz-adv-x="1024" />

    
    <glyph glyph-name="jianhaocu" unicode="&#58899;" d="M128.036583 447.615876l766.998695 0 0-126.889969-766.998695 0 0 126.889969Z"  horiz-adv-x="1024" />

    
    <glyph glyph-name="yduifuxuankuangxuanzhong" unicode="&#59013;" d="M831.551408 831.37719 192.441429 831.37719c-70.301136 0-127.816061-57.516971-127.816061-127.819131l0-639.102816c0-70.308299 57.514925-127.833457 127.816061-127.833457l639.109979 0c70.293973 0 127.821177 57.525158 127.821177 127.833457L959.372585 703.55806C959.372585 773.860219 901.846404 831.37719 831.551408 831.37719zM646.217353 409.560142c-108.652606-159.77903-204.521047-345.115132-204.521047-345.115132L192.444499 345.64853l63.915705 70.303182 153.384389-146.993842c0 0 76.695776 127.822201 178.950671 236.468666 102.261035 108.652606 223.688595 198.12743 223.688595 198.12743l19.170618-63.915705C831.553455 639.639285 729.29856 530.991796 646.217353 409.560142z"  horiz-adv-x="1024" />

    
    <glyph glyph-name="yduifuxuankuang" unicode="&#59014;" d="M831.550385 767.468648c38.349423 0 63.910589-25.567305 63.910589-63.910589l0-639.102816c0-38.355563-25.561166-63.916728-63.910589-63.916728L192.441429 0.538515c-38.341237 0-63.908542 25.561166-63.908542 63.916728L128.532887 703.55806c0 38.343283 25.567305 63.910589 63.908542 63.910589L831.550385 767.468648M831.550385 831.37719 192.441429 831.37719c-70.301136 0-127.816061-57.516971-127.816061-127.819131l0-639.102816c0-70.308299 57.514925-127.833457 127.816061-127.833457l639.108956 0c70.294996 0 127.822201 57.525158 127.822201 127.833457L959.372585 703.55806C959.372585 773.860219 901.846404 831.37719 831.550385 831.37719L831.550385 831.37719 831.550385 831.37719zM831.550385 831.37719"  horiz-adv-x="1024" />

    
    <glyph glyph-name="paixujiantouxia" unicode="&#59213;" d="M757.76 258.56l-218.88-245.76c-14.72-16.64-40.32-16.64-54.4 0L265.6 258.56C244.48 282.24 261.12 320 293.12 320l437.76 0C762.24 320 779.52 282.24 757.76 258.56z"  horiz-adv-x="1024" />

    
    <glyph glyph-name="yuanhuan" unicode="&#59228;" d="M480 832C250.24 832 64 645.76 64 416 64 186.24 250.24 0 480 0c229.76 0 416 186.24 416 416C896 645.76 709.76 832 480 832zM480 64C285.44 64 128 221.44 128 416 128 610.56 285.44 768 480 768 674.56 768 832 610.56 832 416 832 221.44 674.56 64 480 64z"  horiz-adv-x="1024" />

    
    <glyph glyph-name="paixujiantouxia1" unicode="&#59391;" d="M757.76 258.56l-218.88-245.76c-14.72-16.64-40.32-16.64-54.4 0L265.6 258.56C244.48 282.24 261.12 320 293.12 320l437.76 0C762.24 320 779.52 282.24 757.76 258.56z"  horiz-adv-x="1024" />

    
    <glyph glyph-name="Account" unicode="&#58897;" d="M698.418 619.162c-0.028-7.365-0.35-14.709-0.975-22.046-0.225-2.623-1.863-15.407-0.324-4.213-0.571-4.157-1.295-8.29-2.079-12.412-2.76-14.489-6.989-28.679-12.314-42.425-0.632-1.631-1.299-3.25-1.967-4.868 3.746 9.081 1.269 3.068 0.406 1.141-1.419-3.182-2.941-6.316-4.495-9.433-3.354-6.727-7.088-13.259-11.045-19.646-3.639-5.875-7.586-11.554-11.704-17.1-3.849-5.18 4.723 6.001 0.731 0.932-1.063-1.354-2.158-2.687-3.252-4.018-2.553-3.105-5.211-6.12-7.91-9.098-4.627-5.102-9.519-9.959-14.554-14.655-2.521-2.35-5.111-4.619-7.727-6.861-2.062-1.766-12.958-10.284-4.348-3.698-11.458-8.762-23.764-16.385-36.573-23-3.093-1.597-6.236-3.098-9.395-4.561-1.584-0.735-3.182-1.434-4.779-2.134 8.995 3.94 3.054 1.29 1.092 0.495-7.066-2.855-14.295-5.3-21.597-7.483-6.813-2.034-13.735-3.696-20.701-5.127-3.515-0.723-7.054-1.33-10.6-1.896-2.151-0.345-8.834-1.193 1.249 0.118-2.4-0.312-4.807-0.562-7.216-0.803-15.25-1.527-30.644-1.469-45.907-0.168-2.621 0.224-15.407 1.862-4.212 0.323-3.563 0.492-7.111 1.099-10.651 1.745-7.591 1.388-15.096 3.217-22.519 5.317-6.778 1.919-13.448 4.202-20.035 6.699-1.638 0.622-3.261 1.276-4.884 1.933-6.067 2.451 7.104-3.074 1.116-0.451-3.724 1.629-7.388 3.393-11.026 5.206-12.912 6.439-25.168 14.152-36.744 22.75-5.183 3.848 6.001-4.724 0.933-0.734-1.356 1.067-2.687 2.16-4.018 3.254-2.663 2.187-5.254 4.458-7.823 6.752-5.562 4.975-10.844 10.257-15.932 15.71-4.701 5.041-9.134 10.324-13.396 15.738 6.655-8.455-0.802 1.249-2.258 3.297-2.336 3.287-4.554 6.655-6.726 10.050-3.735 5.844-7.156 11.879-10.382 18.017-1.619 3.080-3.139 6.211-4.625 9.358-0.745 1.578-1.457 3.171-2.167 4.763-2.273 5.094 3.040-7.52-0.204 0.505-5.522 13.665-9.645 27.871-12.61 42.3-0.724 3.515-1.331 7.054-1.896 10.598-0.345 2.151-1.193 8.834 0.118-1.25-0.235 1.8-0.428 3.603-0.622 5.406-0.85 7.908-1.229 15.861-1.319 23.814-0.082 7.369 0.243 14.738 0.816 22.083 0.281 3.625 0.685 7.241 1.125 10.849-1.235-10.078-0.448-3.413-0.118-1.25 0.361 2.369 0.783 4.728 1.214 7.084 2.654 14.523 6.784 28.754 12.016 42.551 0.621 1.639 1.277 3.262 1.933 4.886 2.452 6.067-3.074-7.104-0.452-1.117 1.398 3.194 2.899 6.339 4.432 9.47 3.307 6.752 6.996 13.313 10.909 19.73 3.599 5.901 7.506 11.61 11.587 17.186 1.227 1.673 5.18 6.766-0.771-0.902 1.057 1.361 2.142 2.701 3.226 4.040 2.531 3.123 5.169 6.156 7.848 9.153 9.569 10.7 20.172 20.454 31.447 29.328-8.455-6.655 1.248 0.802 3.297 2.259 2.816 2 5.696 3.913 8.594 5.794 6.3 4.089 12.827 7.819 19.473 11.313 3.080 1.618 6.212 3.14 9.358 4.625 1.578 0.745 3.169 1.454 4.761 2.167 5.969 2.664-7.165-2.947-1.115-0.451 7.042 2.905 14.246 5.401 21.526 7.631 6.793 2.083 13.696 3.793 20.644 5.274 3.506 0.748 7.036 1.378 10.573 1.973 1.779 0.299 3.562 0.557 5.345 0.814-10.62-1.539-1.714-0.275 0.589-0.027 15.237 1.64 30.628 1.694 45.898 0.505 3.625-0.283 7.238-0.685 10.847-1.126-11.186 1.372 1.47-0.318 4.070-0.773 7.609-1.333 15.136-3.109 22.58-5.159 6.797-1.87 13.49-4.106 20.098-6.558 2.387-0.885 13.841-5.71 3.809-1.402 3.736-1.606 7.416-3.343 11.068-5.131 12.962-6.348 25.276-13.978 36.918-22.496 1.672-1.227 6.764-5.18-0.902 0.77 1.361-1.057 2.701-2.141 4.041-3.227 2.677-2.169 5.285-4.419 7.871-6.699 5.596-4.936 10.913-10.179 16.040-15.6 4.735-5.006 9.205-10.258 13.504-15.641 4.025-5.042-4.616 6.085-0.733 0.932 1.039-1.377 2.047-2.777 3.057-4.177 2.359-3.27 4.601-6.62 6.795-10 3.773-5.815 7.236-11.825 10.506-17.936 1.638-3.068 3.182-6.187 4.688-9.322 0.757-1.57 1.478-3.157 2.198-4.745 3.581-7.87-1.872 4.692 0.261-0.476 5.842-14.165 10.183-28.922 13.267-43.922 0.722-3.515 1.329-7.054 1.896-10.6 0.345-2.151 1.192-8.834-0.118 1.25 0.313-2.401 0.562-4.808 0.804-7.217 0.796-7.923 1.117-15.89 1.146-23.854 0.063-17.227 14.326-31.603 31.603-31.603 17.18 0 31.666 14.376 31.604 31.603-0.247 66.459-24.248 129.243-66.635 180.104-39.636 47.56-97.76 80.947-158.56 92.058-65.759 12.018-133.914 0.79-191.825-32.86-56.014-32.547-97.728-84.447-120.567-144.677-22.653-59.739-22.173-129.484 0-189.251 22.454-60.521 64.907-111.808 120.567-144.677 57.807-34.139 126.125-44.371 191.825-32.86 61 10.688 118.688 44.887 158.56 92.058 42.621 50.424 66.39 113.979 66.635 180.104 0.063 17.228-14.425 31.602-31.604 31.602-17.275 0.001-31.538-14.377-31.603-31.601zM72.309-70.153c0.026 9.704 0.343 19.394 0.949 29.079 0.304 4.839 0.725 9.668 1.187 14.494 0.229 2.414 0.499 4.822 0.769 7.23 0.188 1.686 1.659 12.546 0.413 3.617 2.789 20.002 7.094 39.777 12.571 59.209 2.629 9.332 5.644 18.555 8.883 27.689 1.621 4.572 3.356 9.103 5.129 13.616 0.886 2.258 1.811 4.501 2.735 6.744-3.412-8.278 0.597 1.278 1.293 2.853 7.642 17.252 16.522 33.939 26.296 50.073 4.692 7.741 9.677 15.306 14.829 22.747 2.578 3.722 5.239 7.385 7.927 11.027 1.345 1.82 2.717 3.62 4.089 5.423-5.301-6.955 1.012 1.199 2.056 2.5 11.791 14.685 24.619 28.521 38.171 41.59 6.478 6.245 13.189 12.242 20.029 18.083 3.422 2.92 6.908 5.763 10.415 8.579 1.201 0.963 7.337 5.723 0.688 0.602 2.375 1.828 4.784 3.617 7.194 5.398 15.076 11.136 30.928 21.202 47.284 30.349 7.199 4.025 14.538 7.794 21.95 11.409 3.467 1.69 6.969 3.308 10.48 4.907 2.196 0.999 4.405 1.963 6.615 2.926 7.536 3.283-6.261-2.572 1.343 0.544 16.351 6.7 33.15 12.273 50.181 16.966 17.034 4.693 34.371 8.229 51.834 10.863 3.593 0.511 3.18 0.468-1.243-0.128 2.389 0.321 4.781 0.604 7.175 0.884 4.788 0.565 9.588 1.012 14.391 1.419 9.712 0.825 19.456 1.247 29.201 1.431 18.122 0.342 36.258-0.571 54.283-2.425 1.947-0.2 15.101-1.873 6.312-0.674 4.896-0.669 9.775-1.458 14.645-2.289 9.742-1.66 19.412-3.726 29.021-6.031 17.612-4.227 34.917-9.679 51.866-16.044 3.814-1.431 7.596-2.95 11.367-4.486 7.693-3.137-6.171 2.676 1.451-0.632 2.242-0.974 4.467-1.982 6.692-2.993 8.903-4.039 17.636-8.449 26.25-13.068 15.183-8.145 34.304-3.919 43.239 11.337 8.464 14.446 3.825 35.104-11.337 43.238-76.031 40.781-162.3 60.807-248.557 56.791-82.806-3.855-164.359-29.617-234.129-74.404-64.75-41.564-119.005-98.858-157.183-165.639-40.667-71.146-61.737-152.949-61.962-234.799-0.047-17.227 14.41-31.604 31.602-31.604 17.269-0.003 31.562 14.373 31.608 31.6v0zM571.779 201.216c53.56 0 107.12 0 160.681 0 75.58 0 151.16 0 226.737 0 8.034 0 16.068 0 24.102 0 17.228 0 31.604 14.376 31.604 31.603 0 17.228-14.376 31.604-31.604 31.604-53.561 0-107.121 0-160.681 0-75.579 0-151.159 0-226.737 0-8.034 0-16.068 0-24.102 0-17.228 0-31.603-14.376-31.603-31.604 0-17.227 14.375-31.603 31.603-31.603v0zM571.779 36.609c53.56 0 107.12 0 160.681 0 75.58 0 151.16 0 226.737 0 8.034 0 16.068 0 24.102 0 17.228 0 31.604 14.374 31.604 31.603 0 17.228-14.376 31.603-31.604 31.603-53.561 0-107.121 0-160.681 0-75.579 0-151.159 0-226.737 0-8.034 0-16.068 0-24.102 0-17.228 0-31.603-14.375-31.603-31.603 0-17.229 14.375-31.603 31.603-31.603v0zM571.779-128c53.56 0 107.12 0 160.681 0 75.58 0 151.16 0 226.737 0 8.034 0 16.068 0 24.102 0 17.228 0 31.604 14.375 31.604 31.604 0 17.227-14.376 31.602-31.604 31.602-53.561 0-107.121 0-160.681 0-75.579 0-151.159 0-226.737 0-8.034 0-16.068 0-24.102 0-17.228 0-31.603-14.375-31.603-31.602 0-17.229 14.375-31.604 31.603-31.604v0z"  horiz-adv-x="1024" />

    
    <glyph glyph-name="qingchu" unicode="&#58902;" d="M512-60.170149c-245.306962 0-444.170149 198.863187-444.170149 444.170149 0 245.312078 198.863187 444.170149 444.170149 444.170149s444.170149-198.85807 444.170149-444.170149C956.170149 138.693038 757.306962-60.170149 512-60.170149zM737.489614 561.174212l-48.318472 48.316425L512 432.321542 334.828858 609.490637l-48.318472-48.316425 177.171142-177.173189L286.509363 206.830905l48.318472-48.321542 177.171142 177.173189L689.171142 158.510386l48.318472 48.321542L560.318472 384 737.489614 561.174212z"  horiz-adv-x="1024" />

    
    <glyph glyph-name="duihao" unicode="&#58893;" d="M390.512065 133.850753 131.140783 430.720068 161.722288 457.438593 392.512628 193.282331 868.794126 669.561781 897.508098 640.846786Z"  horiz-adv-x="1024" />

    
    <glyph glyph-name="renzheng" unicode="&#58898;" d="M809.372 608.279 544.391 608.279c-11.005 0-19.93-8.915-19.93-19.923 0-11 8.925-19.918 19.93-19.918l264.981 0c11 0 19.925 8.918 19.925 19.918C829.292 599.364 820.372 608.279 809.372 608.279L809.372 608.279 809.372 608.279zM809.372 509.214 544.391 509.214c-11.005 0-19.93-8.915-19.93-19.92 0-11.003 8.925-19.925 19.93-19.925l264.981 0c11 0 19.925 8.923 19.925 19.925C829.292 500.299 820.372 509.214 809.372 509.214L809.372 509.214 809.372 509.214zM635.752 390.219c0 11.008-8.91 19.923-19.92 19.923l-71.45 0c-11 0-19.92-8.915-19.92-19.923 0-11 8.92-19.915 19.92-19.915l71.45 0C626.842 370.304 635.752 379.224 635.752 390.219L635.752 390.219 635.752 390.219zM278.973 359.739c-3.67-4.025-9.047-8.25-16.118-12.61-9.078-5.69-19.51-10.08-31.253-13.1-11.783-3.035-23.135-6.5-34.045-10.325-10.935-3.865-20.503-9.11-28.723-15.625-8.255-6.58-13.218-16.06-14.915-28.51-3.345-21.85-4.108-39.665-2.25-53.45 1.835-13.76 4.438-22.01 7.815-24.705 2-1.695 6.883-3.365 14.61-5.045 7.733-1.695 17.163-3.37 28.233-5.035 11.128-1.675 23.47-3.275 37.065-4.805 13.623-1.5 27.33-2.85 41.115-4.03 13.76-1.15 27.14-2.11 40.083-2.77 12.928-0.68 24.283-1.01 34.048-1.01 9.75 0 21.263 0.33 34.525 1.01 13.273 0.66 27.148 1.62 41.623 2.77 14.44 1.18 28.81 2.61 43.085 4.305 8.048 0.945 15.648 1.97 22.848 3.075L496.719 330.834c-2.552 0.755-5.125 1.485-7.717 2.18-9.92 2.69-19.075 5.735-27.49 9.075-9.403 3.7-16.695 7.925-21.905 12.61-5.228 4.72-9.103 9.67-11.618 14.86-2.52 5.24-3.945 10.44-4.273 15.643-0.362 5.217 0 10.343 1.008 15.383 1.337 8.418 4.033 14.37 8.06 17.9 4.033 3.535 9.265 7.813 15.623 12.858 2.685 2.36 5.128 5.65 7.323 9.813 2.195 4.223 4.115 8.498 5.783 12.885 1.703 5.04 3.4 10.42 5.073 16.115 3.345 1.015 6.525 2.85 9.573 5.568 2.678 2.33 5.12 5.615 7.315 9.843 2.19 4.162 3.595 9.812 4.28 16.883 0.685 5.373 0.6 9.9-0.245 13.593-0.855 3.705-1.95 6.748-3.288 9.103-1.35 2.69-3.193 4.858-5.545 6.53 0 13.785-0.82 27.41-2.518 40.838-1.702 11.793-4.525 24.128-8.557 37.065-4.05 12.94-10.44 24.808-19.193 35.55-3.663 4.715-8.793 9.408-15.37 14.115-6.55 4.72-14.043 8.94-22.418 12.615-8.423 3.73-17.42 6.63-27.013 8.828-9.563 2.195-19.21 3.29-28.968 3.29-7.733 0-15.74-0.6-23.963-1.758-8.22-1.202-16.473-3.455-24.695-6.823-8.253-3.372-16.315-7.98-24.215-13.875-7.893-5.865-15.043-13.51-21.43-22.943-7.078-9.758-12.338-20.83-15.9-33.278-3.508-12.448-5.948-24.008-7.293-34.783-1.697-12.778-2.353-25.553-2.033-38.323-3.01-3.37-5.203-6.883-6.543-10.608-1.345-3.345-2.28-7.38-2.77-12.09-0.492-4.69 0.248-9.9 2.275-15.625 1.668-5.73 3.698-10.088 6.058-13.13 2.355-3.015 4.525-5.37 6.518-7.043 2.363-1.68 4.723-2.857 7.078-3.538 1.705-5.7 3.37-11.08 5.043-16.12 1.698-4.39 3.54-8.663 5.533-12.885 2.033-4.165 4.388-7.455 7.078-9.813 5.7-4.717 10.91-9.318 15.625-13.868 4.717-4.525 7.398-10.663 8.062-18.395 0.353-5.398 0.52-10.255 0.52-14.61 0-4.385-0.85-8.58-2.53-12.635C285.386 367.804 282.701 363.779 278.973 359.739L278.973 359.739 278.973 359.739zM113.418 131.988c-25.838 2.695-51.268 29.86-51.268 56.415L62.15 686.947c0 28.365 28.293 54.54 56.615 54.54l753.727 0c28.33 0 58.78-26.175 58.78-54.54l0-309.358c12.69-9.83 34.04-20.8 44.72-32.73L975.992 719.297c0 38.048-48.695 66.283-86.69 66.283L86.498 785.58c-37.988 0-69.065-42.96-69.065-81.005l0-533.146c0-35.63 27.243-79.92 61.895-83.535l429.394 0c-3.065 11.225-5.41 32.33-6.953 44.095L113.418 131.989 113.418 131.988 113.418 131.988zM654.362 169.538c-6.49-0.09-12.455-2.75-16.835-7.455-4.3-4.605-6.525-10.575-6.275-16.82 0.22-6.245 2.86-12.025 7.445-16.29l99.01-92.105c4.885-4.525 11.42-6.8 18.135-6.19 6.62 0.67 12.72 4.1 16.69 9.515l133.54 181.66c7.67 10.435 5.39 25.095-5.03 32.725-10.13 7.4-25.345 5.05-32.72-5.035l-117.95-160.495-79.75 74.22C666.177 167.393 660.402 169.618 654.362 169.538M777.552 382.124c-129.645 0-234.746-105.105-234.746-234.751 0-129.65 105.095-234.746 234.746-234.746s234.746 105.1 234.746 234.746S907.202 382.124 777.552 382.124L777.552 382.124zM777.552-48.432c-105.31 0-195.81 90.495-195.81 195.805s90.5 195.816 195.81 195.816c105.315 0 195.811-90.505 195.811-195.816S882.867-48.432 777.552-48.432L777.552-48.432z"  horiz-adv-x="1024" />

    
    <glyph glyph-name="fengkongchaxun" unicode="&#58919;" d="M874.06592 688.9472l-0.06144 0.04096c0.02048-0.02048 0.02048-0.02048 0.04096-0.04096L874.06592 688.9472 874.06592 688.9472zM874.04544 688.9472c-13.98784 12.5952-32.33792 19.51744-51.38432 19.51744 0 0 0 0 0 0-2.08896 0-3.52256-0.02048-5.2224-0.14336-2.00704-0.2048-11.4688-0.53248-21.11488-0.53248-33.28 0-69.36576 3.05152-101.25312 10.5472-6.53312 1.536-13.7216 4.096-21.42208 7.5776-14.848 6.71744-31.00672 16.60928-48.76288 29.42976-12.96384 9.33888-49.68448 38.62528-54.5792 41.75872-12.43136 8.02816-26.95168 12.20608-41.79968 12.20608-14.72512 0-29.22496-4.15744-41.6768-12.0832 2.33472 1.536-31.70304-28.83584-51.44576-43.1104-23.63392-17.1008-46.44864-29.3888-66.8672-34.9184-1.14688-0.3072-2.29376-0.59392-3.42016-0.86016-31.78496-7.4752-68.44416-10.5472-102.01088-10.5472-9.728 0-18.92352 0.32768-20.54144 0.47104l-0.59392 0.04096c-1.69984 0.12288-3.11296 0.14336-5.14048 0.14336-19.0464 0-37.43744-6.92224-51.46624-19.49696-15.44192-13.84448-24.2688-33.34144-24.2688-53.82144l0-127.6928c0-213.23776 63.32416-363.47904 169.984-460.16512 38.15424-34.59072 79.38048-59.88352 121.1392-77.33248 26.33728-10.99776 47.73888-16.95744 62.95552-19.68128 4.66944-0.75776 9.0112-1.10592 13.39392-1.10592 4.38272 0 8.78592 0.34816 13.06624 1.06496 15.64672 2.78528 37.08928 8.704 63.56992 19.70176 42.02496 17.44896 83.53792 42.72128 121.9584 77.29152 107.43808 96.68608 171.2128 246.94784 171.2128 460.22656l0 127.6928C898.3552 655.60576 889.50784 675.08224 874.04544 688.9472zM853.44256 507.45344c0-200.99072-58.6752-339.18976-156.48768-427.23328-34.44736-30.98624-71.59808-53.61664-109.11744-69.20192-23.22432-9.64608-41.55392-14.70464-53.8624-16.896-1.536-0.24576-3.50208-0.4096-5.44768-0.4096-1.9456 0-3.8912 0.16384-5.79584 0.47104-11.776 2.08896-30.04416 7.18848-53.10464 16.81408-37.23264 15.5648-74.09664 38.17472-108.27776 69.16096-97.11616 88.02304-155.36128 226.24256-155.36128 427.27424l0 127.6928c0 7.82336 3.39968 15.33952 9.48224 20.7872 5.71392 5.12 13.35296 8.00768 21.36064 8.00768 1.49504 0 1.6384 0 1.88416-0.02048 2.7648-0.28672 13.29152-0.65536 24.39168-0.65536 36.7616 0 76.61568 3.33824 112.39424 11.75552 1.6384 0.38912 3.25632 0.79872 4.87424 1.2288 26.54208 7.18848 53.8624 21.89312 81.5104 41.90208 22.50752 16.30208 55.58272 45.81376 49.5616 41.82016 4.83328 3.072 10.89536 4.8128 17.08032 4.8128 6.22592 0 12.24704-1.7408 17.34656-5.03808 2.60096-1.67936 37.96992-29.85984 52.61312-40.448 19.98848-14.41792 38.54336-25.76384 56.5248-33.91488 10.21952-4.62848 20.11136-8.13056 29.696-10.40384 35.84-8.43776 75.1616-11.75552 111.63648-11.75552 11.22304 0 22.07744 0.38912 25.1904 0.73728-0.63488-0.06144-0.43008-0.06144 1.14688-0.06144 0 0 0 0 0 0 7.94624 0 15.54432-2.8672 21.21728-7.96672l0.06144-0.04096 0 0c6.10304-5.46816 9.50272-12.96384 9.50272-20.76672L853.46304 507.45344zM665.45664 580.66944c-6.79936 4.36224-15.9744 2.60096-20.50048-3.95264l-111.94368-161.9968-113.84832 162.07872c-4.58752 6.51264-13.78304 8.23296-20.54144 3.80928-6.7584-4.42368-8.54016-13.27104-3.95264-19.80416l106.68032-151.87968-99.18464 0c-8.17152 0-14.78656-6.38976-14.78656-14.25408 0-7.86432 6.61504-14.25408 14.78656-14.25408l112.76288 0 0-63.13984-112.76288 0c-8.17152 0-14.78656-6.38976-14.78656-14.25408 0-7.86432 6.61504-14.25408 14.78656-14.25408l112.76288 0 0-140.02176c0-7.86432 6.61504-14.25408 14.78656-14.25408s14.78656 6.38976 14.78656 14.25408L544.50176 288.768l112.76288 0c8.17152 0 14.78656 6.38976 14.78656 14.25408 0 7.8848-6.61504 14.25408-14.78656 14.25408l-112.76288 0 0 62.64832 0.32768 0.49152 112.41472 0c8.17152 0 14.78656 6.38976 14.78656 14.25408 0 7.8848-6.61504 14.25408-14.78656 14.25408l-92.71296 0 105.02144 151.98208C674.0992 567.45984 672.256 576.3072 665.45664 580.66944L665.45664 580.66944z"  horiz-adv-x="1024" />

    
    <glyph glyph-name="renzheng1" unicode="&#58885;" d="M506.802116-63.846888c-125.174907 0-357.997534 199.73709-357.997534 388.634298L148.804582 701.100078l35.619242 0.611937c0.703011 0 80.20367 1.749854 162.196079 36.45119 84.092233 35.664268 138.331555 76.575026 138.853441 76.92295l21.24486 16.174378 21.416775-16.174378c0.522909-0.347924 54.762231-41.258683 138.851395-76.92295 81.953524-34.701336 161.453159-36.45119 162.287153-36.45119l35.446303-0.611937 0.124843-376.312668C864.892771 135.933181 632.069121-63.846888 506.802116-63.846888L506.802116-63.846888M221.094002 628.985644l0-304.151162c0-146.065703 202.799846-313.245284 285.708114-313.245284 82.954317 0 285.711184 167.17958 285.711184 313.245284L792.5133 628.985644c-35.444257 3.979638-92.963275 14.07353-152.663982 39.337937-61.281715 26.003234-107.782795 54.194296-133.048225 71.022567-25.25929-16.82827-71.808466-45.019333-132.953058-71.022567C314.059324 643.059174 256.542352 632.965282 221.094002 628.985644L221.094002 628.985644M487.66015 183.443241 335.651085 318.494077l46.766117 57.343009 97.461729-86.579891 185.096648 222.376717 54.67832-49.430806L487.66015 183.443241 487.66015 183.443241M487.66015 183.443241"  horiz-adv-x="1024" />

    
    <glyph glyph-name="query1" unicode="&#59120;" d="M639.628 3.068h-412.878c-54.57 0-98.806 44.238-98.806 98.806v567.984c0 54.57 44.238 98.806 98.806 98.806h569.914c54.57 0 98.806-44.238 98.806-98.806v-413.525h63.961l0 430.219c0 80.317-65.11 145.426-145.426 145.426l-604.596-0c-80.316 0-145.426-65.11-145.426-145.426l0-604.596c0-80.317 65.11-145.426 145.426-145.426h430.219v66.537zM959.43-25.185l-248.696 248.696c35.524 43.931 56.814 99.846 56.814 160.743 0 141.298-114.545 255.843-255.843 255.843s-255.842-114.544-255.842-255.842 114.545-255.843 255.843-255.843c60.897 0 116.813 21.29 160.744 56.814l248.696-248.696 38.284 38.285zM511.706 192.373c-105.974 0-191.882 85.909-191.882 191.882s85.909 191.882 191.882 191.882 191.882-85.909 191.882-191.882-85.909-191.882-191.882-191.882z"  horiz-adv-x="1024" />

    
    <glyph glyph-name="yunongtongzhanghuchaxun" unicode="&#58943;" d="M-589.328-64M698.624 500.752c0 95.792-77.824 173.632-173.632 173.632-95.776 0-173.632-77.824-173.632-173.632 0-59.872 29.952-107.76 71.84-137.68-89.808-41.904-143.696-125.712-143.696-227.536 0-17.936 11.984-29.904 29.952-29.904s23.936 17.936 23.936 29.904c0 101.792 83.808 185.632 191.6 185.632 23.968 0 47.936-5.984 71.872-11.984 11.936-5.968 29.904 0 35.92 17.952 5.968 11.968 0 23.968-6.016 35.936C668.72 392.992 698.624 440.88 698.624 500.752L698.624 500.752zM525.008 386.992c-65.824 0-113.744 53.872-113.744 113.744 0 65.856 53.888 113.744 113.744 113.744 65.84 0 113.76-53.872 113.76-113.744C638.768 434.896 590.848 386.992 525.008 386.992L525.008 386.992zM956.064-20.112l-83.808 83.792c29.968 29.936 41.904 71.84 41.904 113.744 0 95.792-77.808 173.632-173.632 173.632S566.912 273.248 566.912 177.44c0-95.776 77.808-173.616 173.632-173.616 29.936 0 59.84 11.952 89.808 23.92l0 0 83.792-83.792c6.016-6 11.984-6 17.952-6 5.984 0 12 0 17.968 6C962.064-44.064 962.064-26.112 956.064-20.112L956.064-20.112zM626.784 177.456c0 65.84 53.888 119.728 119.76 119.728 65.824 0 119.728-53.888 119.728-119.728 0-65.856-53.904-119.728-119.728-119.728C680.672 57.68 626.784 111.6 626.784 177.456L626.784 177.456zM746.544 279.216c-59.856 0-107.776-47.888-107.776-107.744 0-17.968 11.984-29.936 29.952-29.936s29.904 11.968 29.904 29.936c0 29.92 23.936 47.888 47.92 47.888 17.92 0 29.888 11.968 29.888 29.936C776.432 267.248 764.464 279.216 746.544 279.216L746.544 279.216zM584.88 21.776 195.712 21.776c-41.904 0-77.824 35.904-77.824 77.84L117.888 698.336c0 41.904 35.936 77.808 77.824 77.808l604.672 0c41.904 0 77.84-35.904 77.84-77.808l0-335.312c-5.968-17.968 12-29.936 23.968-29.936 17.968 0 29.904 11.968 29.904 29.936L932.096 698.336c0 71.824-59.84 131.696-131.712 131.696L195.712 830.032C123.872 830.032 64 770.16 64 698.336l0-604.672c0-71.84 59.872-131.712 131.712-131.712l389.168 0c17.952 0 29.936 11.968 29.936 29.936C614.832 9.808 602.848 21.776 584.88 21.776L584.88 21.776zM465.136-14.128M854.288 369.024"  horiz-adv-x="1024" />

    
    <glyph glyph-name="zhanghuguanli" unicode="&#58942;" d="M680.64 384c7.744 0 15.744-0.576 24.64-1.664l6.976-19.968 4.608-13.696 14.272-4.288c9.6-2.88 19.136-6.72 28.096-11.136l13.12-6.656 13.12 6.4 19.648 9.472c12.992-9.856 24.64-21.248 35.136-33.856l-9.856-18.88-6.528-12.864 6.656-12.608c4.864-8.768 8.768-17.984 11.776-27.392l4.48-13.632 14.144-4.48 20.608-6.72c1.152-8.64 1.6-16.384 1.6-23.616l0-0.128 0-0.128c0-7.36-0.512-15.488-1.6-24l-20.736-6.656-14.272-4.608-4.352-13.76c-2.88-9.472-6.72-18.624-11.52-27.136l-6.848-12.736 6.528-12.864 9.728-18.88c-5.376-6.72-10.624-12.736-16.128-17.984l-0.128 0 0-0.128c-5.504-5.376-11.648-10.496-18.624-15.744l-19.52 9.472-13.248 6.4-13.12-6.656c-9.152-4.48-18.624-8.256-28.096-11.392l-14.272-4.224-4.48-13.504L705.344-6.4c-8.896-1.28-17.024-1.728-24.768-1.728-7.616 0-15.744 0.512-24.768 1.728l-6.848 20.096-4.608 13.632-14.272 4.096c-9.6 3.136-19.136 6.72-28.032 11.392l-12.992 6.656-13.376-6.4-19.584-9.472c-6.976 5.376-13.056 10.368-18.624 15.872-5.568 5.248-10.944 11.264-16.256 17.984l9.664 18.752L537.6 99.136l-6.848 12.608c-4.8 8.768-8.704 17.984-11.648 27.264l-4.352 13.76-14.08 4.48-20.736 6.72c-1.216 8.512-1.664 16.512-1.664 23.872 0 7.488 0.448 15.36 1.664 24l20.672 6.528 14.08 4.608 4.416 13.76c3.008 9.472 6.912 18.752 11.648 27.264l6.848 12.608L530.88 289.6 521.152 308.48c10.176 12.48 21.952 24 34.88 33.664l19.456-9.344L588.864 326.4l13.12 6.72c8.768 4.48 18.368 8.256 28.096 11.264l14.272 4.224 4.608 13.632 6.848 20.096C664.896 383.424 673.024 384 680.64 384L680.64 384 680.64 384zM680.768 440c-13.248 0-26.24-1.28-41.28-3.52L628.352 434.752 614.272 393.856c-12.864-3.904-25.28-8.768-37.12-14.784L537.408 398.336 528.256 392C505.792 376.192 486.144 357.248 469.888 335.424L463.232 326.656 483.2 288.128c-6.208-11.52-11.328-23.488-15.36-36.032L425.6 238.656l-1.792-10.752c-2.432-14.656-3.52-27.52-3.52-39.872s1.152-25.344 3.52-40l1.792-10.752 42.176-13.632c3.968-12.48 9.088-24.512 15.36-35.904l-19.84-38.4 6.656-9.024c8.768-11.648 17.536-21.632 26.624-30.656 9.152-8.768 19.52-17.28 31.68-25.728l9.152-6.4 39.744 19.136c11.904-6.016 24.128-11.008 37.12-14.848l14.144-40.768 11.136-1.728C654.528-62.976 667.904-64 680.768-64c12.736 0 26.24 1.024 41.28 3.392l11.136 1.728 13.888 40.768c12.992 3.904 25.344 9.024 37.376 14.848l39.616-19.136 9.152 6.4c12.224 8.512 22.528 17.024 31.616 25.728 9.28 9.024 17.856 19.008 26.624 30.656l6.656 9.024-19.904 38.528c6.272 11.392 11.392 23.36 15.36 35.904l42.24 13.632 1.6 10.752c2.496 14.656 3.648 27.648 3.648 40 0.128 12.352-1.152 25.28-3.648 39.872l-1.6 10.88-42.24 13.504c-4.032 12.48-9.152 24.384-15.36 35.904l19.904 38.528-6.528 8.96c-16.512 21.696-36.032 40.704-58.368 56.448l-9.28 6.4-39.744-19.264c-11.904 6.016-24.128 11.008-37.12 14.848l-14.144 40.768L721.856 436.48C707.008 438.784 693.888 440 680.768 440L680.768 440 680.768 440 680.768 440zM680.768 440M680.576 214.976c7.232 0 14.016-2.88 19.136-8 5.12-4.992 7.872-11.904 7.872-19.008 0-7.232-2.752-14.016-7.872-19.136s-11.904-7.872-19.136-7.872c-7.168 0-13.952 2.752-19.008 7.872-5.12 5.12-7.936 11.904-7.936 19.136 0 7.104 2.816 14.016 7.936 19.008C666.624 212.096 673.344 214.976 680.576 214.976L680.576 214.976 680.576 214.976zM680.576 268.864c-44.608 0-80.896-36.096-80.896-80.896s36.224-81.024 80.896-81.024c44.736 0 81.024 36.224 81.024 81.024S725.312 268.864 680.576 268.864L680.576 268.864 680.576 268.864 680.576 268.864zM680.576 268.864M480.832 415.488C548.48 454.656 593.984 526.144 593.984 608c0 123.712-103.744 224-231.552 224C234.688 832 131.072 731.712 131.072 608c0-81.856 45.312-153.344 112.96-192.448C143.296 371.648 73.152 273.728 73.152 160l0-196.032C73.152-51.52 86.144-64 102.08-64c16 0 28.992 12.48 28.992 28.032L131.072 160c0 123.776 103.616 224 231.36 224 43.904 0 84.992-11.904 119.872-32.448l91.072 0C547.328 378.368 515.968 400.192 480.832 415.488L480.832 415.488zM188.864 608c0 92.8 77.696 168 173.568 168S536 700.736 536 608c0-92.736-77.632-168-173.504-168S188.864 515.2 188.864 608L188.864 608zM188.864 608"  horiz-adv-x="1024" />

    
    <glyph glyph-name="jiahao" unicode="&#58933;" d="M288.191617 428.761677l447.616766 0 0-89.523353-447.616766 0 0 89.523353ZM556.761677 607.808383l0-447.616766-89.523353 0 0 447.616766 89.523353 0Z"  horiz-adv-x="1024" />

    
    <glyph glyph-name="mine_deal_img" unicode="&#59338;" d="M511.605 864.021c-260.404 0-472.201-211.853-472.201-472.201 0-126.133 49.129-244.694 138.27-333.87 5.477-5.477 12.653-8.234 19.886-8.234 7.172 0 11.957 2.755 17.495 8.234 10.928 10.958-4.571 28.665-15.53 39.714-78.64 78.547-120.714 183.097-120.714 294.183 0 229.439 203.379 435.211 432.816 435.211s431.61-205.772 431.61-435.211c0-15.499 4.177-26.88 19.766-26.88 15.499 0 20.885 11.353 20.885 26.88-0.091 260.316-211.914 472.167-472.289 472.167M951.779 288.605l-78.397-8.476c-8.293-0.849-15.558-6.114-18.858-13.803-3.42-7.537-2.452-16.406 2.452-23.186l7.719-10.596-343.555-255.926-92.26 114.781c-9.443 11.685-26.486 13.956-38.592 4.932-38.715-28.815-120.048-95.014-129.491-101.071-11.988-6.267-17.981-20.493-13.561-33.78 4.965-14.71 20.825-22.55 35.536-17.676 4.812 1.604 32.025 26.638 119.261 91.351l92.321-114.781c5.509-6.871 13.651-10.443 21.886-10.443 5.812 0 11.685 1.817 16.77 5.569l364.896 271.756 5.631-7.841c4.42-6.025 11.503-9.536 18.917-9.536 0.849 0 1.663 0.061 2.452 0.091 8.293 0.909 15.499 6.176 18.977 13.742l31.934 72.161c3.27 7.628 2.422 16.526-2.571 23.307-4.965 6.66-13.138 10.353-21.46 9.411M681.417 618.783c6.114 12.138 9.142 20.129 9.142 24.187-1.997 16.163-11.079 25.185-27.242 27.242-16.163 0-28.211-7.085-36.323-21.189l-115.356-185.035-115.415 185.066c-8.083 14.046-20.22 21.125-36.353 21.125-16.221-1.997-25.245-11.108-27.242-27.242 1.997-8.143 5.024-16.163 9.081-24.187 1.997-2.058 3.057-4.057 3.057-6.083l100.282-166.844h-72.737c-22.249 0-33.326-9.081-33.326-27.242 1.997-14.166 13.106-22.249 33.326-24.187h106.003v-54.454h-106.003c-22.249 0-33.326-9.081-33.326-27.271 1.997-14.105 13.106-22.249 33.326-24.247h106.003v-121.108c0-20.129 11.049-30.33 33.326-30.33 22.124 0 33.265 10.14 33.265 30.33v121.108h105.945c20.129 1.997 31.268 10.14 33.326 24.247 0 18.161-11.14 27.271-33.326 27.271h-105.945v54.425h105.945c20.129 1.997 31.268 10.081 33.326 24.187 0 18.161-11.14 27.242-33.326 27.242h-72.585l100.252 166.844c-0.029 2.090 0.937 4.084 2.907 6.145M681.417 618.783z"  horiz-adv-x="1024" />

    
    <glyph glyph-name="zhanghuguanli1" unicode="&#58928;" d="M958.144106 79.414957c0-78.526471-63.212694-142.190443-141.178393-142.190443H207.033263c-77.964676 0-141.178393 63.663972-141.178393 142.190443V693.745576c0 78.526471 63.212694 142.190443 141.178393 142.190443h609.93245c77.964676 0 141.178393-63.663972 141.178393-142.190443v-614.330619zM616.181781 247.747803h-55.06513v40.445154c45.058219 15.32094 82.115206 55.159274 101.555977 107.455337 9.522887 2.208295 17.328667 9.44614 19.370163 19.208481l5.513574 26.377764c2.058892 9.881045-2.362814 19.540032-10.471493 25.021883 0.232291 4.399193 0.39295 8.823969 0.39295 13.282515 0 64.377216-24.399713 114.582665-62.189388 145.053653l45.307906 12.413728c-13.659091 4.015454-27.192316 6.180769-40.152489 6.802939l11.868305 3.247974a172.494633 172.494633 0 0 1-39.777958 6.786567l22.35924 6.120394c-35.9467 10.55438-71.301929 8.833179-96.184643-2.404769-86.429465-0.647753-156.299789-69.064982-156.299788-178.02151 0-4.372587 0.152473-8.695033 0.375553-13.018501-8.448416-5.405103-13.121855-15.294334-11.008728-25.405623l5.513574-26.369578c2.086521-9.983375 10.204409-17.349133 20.032242-19.370163 19.387559-51.936883 56.175417-91.555206 100.910271-106.978476v-40.648792h-55.06513c-73.5399 0-133.142369-56.780191-133.14237-126.817314v-53.156664h459.291545v53.156664c0 70.039169-59.612703 126.818337-133.134183 126.818337z"  horiz-adv-x="1024" />

    
    <glyph glyph-name="shangxiajiantou" unicode="&#59063;" d="M512.03799 896 921.675981 484.352 102.4 484.352 512.03799 896ZM512.03799-99.328 102.4 312.32 921.675981 312.32 512.03799-99.328Z"  horiz-adv-x="1024" />

    
    <glyph glyph-name="guanji" unicode="&#59084;" d="M856.436364 761.018182c102.4-93.090909 167.563636-228.072727 167.563636-377.018182 0-283.927273-228.072727-512-512-512s-512 228.072727-512 512c0 148.945455 65.163636 283.927273 167.563636 377.018182 23.272727 13.963636 55.854545 18.618182 88.436364-4.654546 32.581818-27.927273 37.236364-65.163636 13.963636-88.436363-79.127273-69.818182-130.327273-167.563636-130.327272-283.927273 0-204.8 167.563636-372.363636 372.363636-372.363636s372.363636 167.563636 372.363636 372.363636c0 111.709091-51.2 214.109091-130.327272 283.927273-9.309091 13.963636-18.618182 51.2 13.963636 88.436363 37.236364 37.236364 79.127273 13.963636 88.436364 4.654546z m-414.254546 65.163636c0 37.236364 32.581818 69.818182 69.818182 69.818182s69.818182-32.581818 69.818182-69.818182v-279.272727c0-37.236364-32.581818-69.818182-69.818182-69.818182s-69.818182 32.581818-69.818182 69.818182v279.272727z"  horiz-adv-x="1024" />

    
    <glyph glyph-name="dealer" unicode="&#58901;" d="M733.359 384.534c91.896 43.951 154.243 136.181 154.243 242.973 0 148.285-120.209 268.494-268.494 268.494-148.285 0-268.494-120.209-268.494-268.494 0-106.792 62.347-199.022 152.628-242.275-224.657-56.6-329.9-278.167-329.9-486.301 0.708-14.307 12.48-25.639 26.899-25.639 14.419 0 26.191 11.332 26.896 25.576 0.002 214.635 122.518 445.799 391.631 445.799s391.628-230.916 391.628-445.735c0.708-14.307 12.48-25.639 26.899-25.639 14.419 0 26.191 11.332 26.896 25.576 0.002 208.197-104.622 429.764-331.142 485.667zM404.443 627.088c-0 118.539 96.095 214.634 214.634 214.634 118.539 0 214.634-96.095 214.634-214.634 0-118.539-96.095-214.634-214.634-214.634-118.482 0.141-214.493 96.152-214.634 214.621zM291.276 401.868c13.714 1.366 24.336 12.845 24.336 26.805 0 11.050-6.655 20.546-16.176 24.697-5.56 2.358-132.161 58.199-122.132 189.257 11.515 149.259 174.084 167.151 181.142 168.079 13.713 1.369 24.332 12.848 24.332 26.806 0 14.874-12.058 26.932-26.932 26.932-0.916 0-1.821-0.046-2.713-0.135-74.177-7.048-217.555-61.899-229.565-217.535-7.305-96.947 44.821-166.656 96.39-207.329-89.952-31.387-236.549-120.163-218.41-364.389 1.154-13.879 12.678-24.713 26.744-24.763l2.105 0c13.945 1.119 24.837 12.712 24.837 26.848 0 0.704-0.027 1.402-0.080 2.092-21.786 293.598 225.597 321.828 236.060 322.695zM1018.258 439.446c51.569 40.921 103.757 110.567 96.205 207.515-12.010 155.822-155.45 210.486-229.616 217.544-0.701 0.065-1.517 0.102-2.341 0.102-14.873 0-26.93-12.057-26.93-26.93 0-13.888 10.512-25.32 24.013-26.774 7.052-0.691 169.56-17.902 181.137-168.028 10.091-131.059-116.51-186.899-121.834-189.19-9.771-4.186-16.492-13.72-16.492-24.825 0-13.966 10.631-25.449 24.242-26.797 10.636-0.999 258.081-29.167 236.228-322.796-0.047-0.599-0.074-1.297-0.074-2.001 0-14.137 10.893-25.729 24.742-26.842l2.138-0.006c14.070 0.053 25.593 10.889 26.738 24.671 18.455 244.195-128.267 332.97-218.157 364.357zM1018.258 439.446z"  horiz-adv-x="1238" />

    
    <glyph glyph-name="jijianfasong" unicode="&#59539;" d="M925.6 336.8L152 750.4c-11.2 5.6-24.8-3.2-23.2-15.2l60-714.4c0.8-11.2 12-17.6 22.4-13.6L460.8 112l136.8-155.2c8.8-9.6 24-5.6 27.2 6.4l65.6 245.6 235.2 99.2c11.2 5.6 12 22.4 0 28.8z m-328-305.6l-72 128-368 568 488-504-48-192z"  horiz-adv-x="1024" />

    
    <glyph glyph-name="jifen" unicode="&#59543;" d="M179.2 713.6c-34.4-16.8-51.2-35.2-51.2-55.2v-55.2c0-20 16.8-38.4 51.2-55.2 34.4-16.8 80.8-30.4 140-40 59.2-9.6 123.2-14.4 192.8-14.4s133.6 4.8 192.8 14.4c59.2 9.6 105.6 23.2 140 40 34.4 16.8 51.2 35.2 51.2 55.2v55.2c0 20-16.8 38.4-51.2 55.2-34.4 16.8-80.8 30.4-140 40C645.6 763.2 581.6 768 512 768s-133.6-4.8-192.8-14.4c-58.4-10.4-105.6-23.2-140-40M128 344v-69.6c0-20 16.8-38.4 51.2-55.2s80.8-30.4 140-40c59.2-9.6 123.2-14.4 192.8-14.4s133.6 4.8 192.8 14.4c59.2 9.6 105.6 23.2 140 40 34.4 16.8 51.2 35.2 51.2 55.2v72.8c-40-24-93.6-42.4-162.4-54.4-68.8-12.8-142.4-18.4-221.6-18.4s-152.8 5.6-221.6 18.4C221.6 304.8 168 323.2 128 347.2M128 184v-74.4c0-20 16.8-38.4 51.2-55.2s80.8-30.4 140-40c59.2-9.6 123.2-14.4 192.8-14.4s133.6 4.8 192.8 14.4c59.2 9.6 105.6 23.2 140 40 34.4 16.8 51.2 35.2 51.2 55.2v72.8c-40-24-93.6-42.4-162.4-54.4-68.8-12-142.4-18.4-221.6-18.4s-152.8 6.4-221.6 18.4C221.6 140 168 158.4 128 182.4M128 512v-72.8c0-20 16.8-38.4 51.2-55.2s80.8-30.4 140-40c59.2-9.6 123.2-14.4 192.8-14.4s133.6 4.8 192.8 14.4c59.2 9.6 105.6 23.2 140 40 34.4 16.8 51.2 35.2 51.2 55.2V512c-40-24-93.6-42.4-162.4-54.4-68.8-12-142.4-18.4-221.6-18.4s-152.8 6.4-221.6 18.4C221.6 469.6 168 488 128 512"  horiz-adv-x="1024" />

    
    <glyph glyph-name="maikefeng-xianxing" unicode="&#59587;" d="M512 768c35.2 0 64-28.8 64-64v-320c0-35.2-28.8-64-64-64s-64 28.8-64 64V704c0 35.2 28.8 64 64 64m0 64c-70.4 0-128-57.6-128-128v-320c0-70.4 57.6-128 128-128s128 57.6 128 128V704c0 70.4-57.6 128-128 128z m320-448h-64c0-140.8-115.2-256-256-256S256 243.2 256 384h-64c0-165.6 126.4-302.4 288-318.4V-64h64v129.6c161.6 16 288 152.8 288 318.4z"  horiz-adv-x="1024" />

    
    <glyph glyph-name="xihuan" unicode="&#59588;" d="M512 0l-60.8 55.2C236 250.4 93.6 380 93.6 537.6 93.6 666.4 194.4 768 324 768c72.8 0 142.4-33.6 188-87.2C557.6 733.6 627.2 768 700 768c128.8 0 230.4-100.8 230.4-230.4 0-157.6-142.4-287.2-357.6-482.4L512 0z"  horiz-adv-x="1024" />

    
    <glyph glyph-name="shijian-xianxing" unicode="&#59589;" d="M512 832C264.8 832 64 631.2 64 384s200.8-448 448-448 448 200.8 448 448S759.2 832 512 832z m0-832c-212 0-384 172-384 384s172 384 384 384 384-172 384-384-172-384-384-384z m32 393.6l191.2-110.4-32-55.2L488.8 352H480V640h64v-246.4z"  horiz-adv-x="1024" />

    
    <glyph glyph-name="shangchuandaochu" unicode="&#59590;" d="M512 768l184-192H544v-448h-64V576H328l184 192z m384-384h-64v-320H192V384h-64v-384h768V384z"  horiz-adv-x="1024" />

    
    <glyph glyph-name="xiazaidaoru" unicode="&#59591;" d="M328 320h152V768h64v-448h152L512 128 328 320z m568 64h-64v-320H192V384h-64v-384h768V384z"  horiz-adv-x="1024" />

    
    <glyph glyph-name="yonghu" unicode="&#59592;" d="M500 767.2c-95.2-5.6-173.6-83.2-180-178.4-7.2-112 80.8-205.6 191.2-205.6 106.4 0 192 86.4 192 192 0.8 110.4-92 198.4-203.2 192zM512 320.8c-128 0-383.2-64-383.2-192v-96c0-17.6 14.4-32 32-32h702.4c17.6 0 32 14.4 32 32V129.6c0 127.2-255.2 191.2-383.2 191.2z"  horiz-adv-x="1024" />

    
    <glyph glyph-name="biaotou-zhengxu" unicode="&#59639;" d="M256 256l256 256 256-256z"  horiz-adv-x="1024" />

    
    <glyph glyph-name="biaotou-daoxu" unicode="&#59640;" d="M256 512l256-256 256 256z"  horiz-adv-x="1024" />

    
    <glyph glyph-name="renzheng2" unicode="&#58903;" d="M803.719529 336.745412c-5.601882 0-11.203765-0.301176-16.805647-0.873412-0.451765-0.030118-0.873412-0.120471-1.295058-0.180706a528.263529 528.263529 0 0 1-127.277177 54.091294 272.414118 272.414118 0 0 1 48.519529 43.550118c0.873412 0.873412 1.776941 2.048 2.650353 2.951529l7.951059 9.728c4.126118 5.300706 7.951059 10.601412 11.474824 16.203294a211.425882 211.425882 0 0 1 17.679059 30.629647c2.349176 4.427294 4.427294 8.824471 6.174117 13.251765 0.301176 0.602353 0.301176 0.873412 0.301177 1.174588a262.535529 262.535529 0 0 1 20.329411 101.616942 265.667765 265.667765 0 0 1-142.275764 235.068235 268.649412 268.649412 0 0 1-66.56 24.455529A264.673882 264.673882 0 0 1 518.324706 874.014118c-3.252706 0.301176-6.776471 0.301176-10.300235 0.301176-17.980235 0-35.358118-1.776941-52.434824-4.999529-121.374118-24.455529-212.992-131.975529-212.992-260.427294a264.854588 264.854588 0 0 1 115.169882-218.864942v-0.210823c-75.926588-20.901647-144.233412-57.042824-199.951058-104.809412C67.584 208.022588 10.179765 99.207529 10.511059-21.534118c0-4.638118 0-9.276235 0.331294-13.94447h66.349176c-0.662588 4.638118-0.662588 9.276235-0.662588 13.94447 0.331294 99.207529 46.772706 189.44 124.747294 256.451765 77.643294 66.680471 185.795765 108.483765 306.537412 108.483765h0.331294c67.041882 0 130.198588-13.372235 186.608941-36.442353a215.371294 215.371294 0 0 1-107.038117-186.127059 216.064 216.064 0 0 1 215.943529-215.943529c119.296 0 216.214588 96.617412 216.214588 215.943529s-96.858353 215.913412-216.154353 215.913412z m-494.832941 272.143059a197.872941 197.872941 0 0 0 58.337883 140.8 198.324706 198.324706 0 0 0 140.8 58.036705c7.077647 0 14.155294-0.301176 20.901647-0.873411a201.878588 201.878588 0 0 0 119.597176-57.133177 197.872941 197.872941 0 0 0 58.337882-140.8c0-29.756235-6.475294-58.036706-18.251294-83.06447a91.557647 91.557647 0 0 0-5.300706-10.601412c-1.776941-3.824941-4.126118-7.649882-6.475294-11.474824-1.174588-2.048-2.349176-4.126118-3.824941-6.174117v-0.301177a243.651765 243.651765 0 0 0-22.106353-26.804706l-2.349176-2.349176a184.229647 184.229647 0 0 0-34.755765-27.678118 194.710588 194.710588 0 0 0-105.472-30.629647H506.578824c-13.552941 0-27.105882 1.475765-39.755295 4.427294-0.602353 0-0.873412 0-1.174588 0.301177a196.065882 196.065882 0 0 0-98.394353 53.609412 197.391059 197.391059 0 0 0-58.368 140.709647z m456.824471-601.780706l-103.996235 103.996235 46.832941 47.134118 57.133176-57.163294 91.617883 91.316705 41.833411 41.833412 46.832941-46.832941-180.254117-180.284235z"  horiz-adv-x="1024" />

    
    <glyph glyph-name="guanliyuan" unicode="&#59030;" d="M315.392 388.096c-81.92 40.96-137.216 122.88-137.216 221.184 0 135.168 110.592 245.76 245.76 245.76s245.76-110.592 245.76-245.76c0-133.12-104.448-241.664-237.568-245.76h-2.048c-202.752 0-368.64-165.888-368.64-368.64 0-12.288-8.192-20.48-20.48-20.48s-20.48 8.192-20.48 20.48c0 186.368 124.928 344.064 294.912 393.216z m108.544 16.384c112.64 0 204.8 92.16 204.8 204.8s-92.16 204.8-204.8 204.8-204.8-92.16-204.8-204.8 92.16-204.8 204.8-204.8z m561.152-135.168l4.096-10.24-49.152-59.392c-8.192-10.24-8.192-26.624 0-36.864l49.152-57.344-4.096-10.24c-10.24-28.672-24.576-57.344-45.056-79.872l-8.192-8.192-75.776 12.288c-12.288 2.048-26.624-6.144-30.72-18.432l-26.624-73.728-10.24-2.048c-38.912-8.192-77.824-8.192-116.736 0l-12.288 2.048-24.576 71.68c-4.096 12.288-18.432 20.48-30.72 18.432l-77.824-12.288-8.192 8.192c-10.24 10.24-18.432 22.528-24.576 34.816-8.192 14.336-16.384 30.72-20.48 47.104l-4.096 10.24 51.2 57.344c8.192 10.24 8.192 26.624 0 34.816l-49.152 59.392 4.096 10.24c10.24 30.72 26.624 57.344 47.104 81.92l8.192 8.192 73.728-12.288c12.288-2.048 26.624 6.144 32.768 18.432l26.624 71.68 10.24 2.048c36.864 8.192 75.776 8.192 114.688 0l12.288-2.048 24.576-69.632c4.096-12.288 18.432-22.528 32.768-20.48l75.776 10.24 8.192-8.192c10.24-12.288 18.432-22.528 24.576-36.864 6.144-10.24 12.288-26.624 18.432-40.96z m-57.344 24.576c-4.096 8.192-8.192 14.336-14.336 22.528l-53.248-6.144c-32.768-4.096-65.536 16.384-75.776 47.104l-16.384 47.104c-24.576 4.096-49.152 4.096-73.728 0l-18.432-49.152c-10.24-30.72-45.056-51.2-77.824-45.056l-51.2 8.192c-12.288-14.336-20.48-32.768-28.672-49.152l34.816-40.96c20.48-24.576 20.48-63.488 0-88.064l-34.816-40.96c4.096-10.24 8.192-18.432 14.336-28.672 4.096-8.192 8.192-14.336 14.336-20.48l55.296 8.192c32.768 4.096 65.536-16.384 75.776-47.104l16.384-49.152c24.576-4.096 51.2-4.096 75.776 0l18.432 51.2c10.24 30.72 45.056 51.2 75.776 45.056l51.2-8.192c10.24 14.336 20.48 30.72 26.624 49.152l-32.768 38.912c-20.48 24.576-22.528 63.488-2.048 88.064l34.816 40.96c-4.096 8.192-8.192 16.384-14.336 26.624z m-196.608-204.8c-51.2 0-92.16 40.96-92.16 92.16s40.96 92.16 92.16 92.16 92.16-40.96 92.16-92.16-43.008-92.16-92.16-92.16z m0 40.96c28.672 0 51.2 22.528 51.2 51.2s-22.528 51.2-51.2 51.2-51.2-22.528-51.2-51.2 22.528-51.2 51.2-51.2z"  horiz-adv-x="1024" />

    
    <glyph glyph-name="waitSession" unicode="&#59010;" d="M805.7 778v-460.6h-422.6l-110.2-110.2-110.2 110.2h-55.9v460.6h698.9M845.7 818h-778.9v-540.6h79.3l126.8-126.8 126.8 126.8h446v540.6zM276.8 582.6h-60v-60h60v60zM473.1 582.6h-60v-60h60v60zM669.5 582.6h-60v-60h60v60zM874.8 532.6v-40h42.4v-392h-45.9l-94.1-94.1-94.1 94.1h-365.9v20.1h-40v-60.1h389.4l110.6-110.6 110.7 110.7h69.3v472h-82.4z"  horiz-adv-x="1024" />

    
    <glyph glyph-name="user-agent" unicode="&#58906;" d="M690.058 359.208c-117.382 0-212.88-95.466-212.88-212.808 0-117.321 95.498-212.766 212.88-212.766 117.389 0 212.889 95.445 212.889 212.766 0 117.342-95.5 212.808-212.89 212.808z m0-390.018c-97.763 0-177.296 79.508-177.296 177.21 0 97.735 79.541 177.243 177.296 177.243 97.77 0 177.303-79.508 177.303-177.243 0-97.702-79.534-177.21-177.303-177.21z m22.54 209.044h45.06c5.47 0 9.927 4.464 9.927 9.942 0 5.462-4.458 9.91-9.927 9.91h-6.535c-5.091 0-9.692 3.07-11.64 7.78a12.634 12.634 0 0 0 2.73 13.752l16.525 16.519c3.123 3.115 3.123 8.196 0.007 11.32a7.988 7.988 0 0 1-5.664 2.34c-2.13 0-4.144-0.834-5.651-2.34l-45.195-45.213a12.615 12.615 0 0 0-8.918-3.68 12.613 12.613 0 0 0-8.92 3.68l-45.191 45.213a7.96 7.96 0 0 1-5.658 2.34 7.954 7.954 0 0 1-5.65-2.34c-3.124-3.116-3.124-8.205 0-11.32l16.525-16.519a12.644 12.644 0 0 0 2.737-13.751 12.62 12.62 0 0 0-11.649-7.781H622.47c-5.47 0-9.924-4.448-9.924-9.91 0-5.478 4.455-9.942 9.924-9.942h45.063c6.97 0 12.616-5.636 12.616-12.605v-22.53c0-6.97-5.646-12.606-12.616-12.606H622.47c-5.47 0-9.924-4.464-9.924-9.928 0-5.476 4.455-9.925 9.924-9.925h45.063c6.97 0 12.616-5.65 12.616-12.606v-45.078c0-5.46 4.454-9.91 9.917-9.91 5.476 0 9.925 4.45 9.925 9.91v45.078c0 6.957 5.644 12.606 12.608 12.606h45.06c5.48 0 9.927 4.45 9.927 9.925 0 5.464-4.448 9.928-9.927 9.928h-45.06c-6.964 0-12.608 5.636-12.608 12.605v22.53c-0.008 6.97 5.636 12.606 12.607 12.606zM478.29 301.952a16.12 16.12 0 0 0 1.111 0.102 29.22 29.22 0 0 1 3.631 0.434 1.91 1.91 0 0 0 0.195 0.037c5.774 1.093 11.173 3.905 15.216 7.94 5.287 5.289 8.446 12.916 8.446 20.407 0 7.478-5.749 28.95-28.697 28.95-117 0.242-212.103 96.916-212.103 215.714 0 118.95 95.345 215.726 212.54 215.726 117.209 0 212.573-96.776 212.573-215.726 0-47.205-14.917-92.116-43.144-129.883-0.216-0.279-0.435-0.554-0.666-0.815-3.128-3.52-4.912-8.172-4.912-12.762 0-4.98 2.102-10.056 5.608-13.569 3.535-3.52 8.607-5.626 13.585-5.626 4.977 0 10.047 2.103 13.583 5.637 0.275 0.279 0.608 0.648 1.03 1.148 0.071 0.094 0.151 0.186 0.23 0.276 0.407 0.499 0.805 1.05 1.188 1.64 0.116 0.186 0.25 0.37 0.377 0.547 32.617 44.93 49.86 97.878 49.86 153.124 0 141.783-111.839 257.128-249.311 257.128-137.46 0-249.29-115.345-249.29-257.128 0-48.638 13.268-95.969 38.367-136.874 24.376-39.726 58.818-71.854 99.6-92.915a12.608 12.608 0 0 0-1.725-23.139c-71.638-24.357-133.244-70.45-178.165-133.294-45.73-63.974-69.981-139.885-70.167-219.49 0.17-0.595 0.301-1.189 0.384-1.812 0.49-3.594 2.185-7.073 4.648-9.535 3.028-3.028 7.39-4.84 11.664-4.84 4.278 0 8.636 1.812 11.668 4.84 2.46 2.462 4.152 5.941 4.647 9.535 0.033 0.246 0.072 0.493 0.12 0.738 0 0.044 0.007 0.666 0.011 0.783 0.007 0.188 0.018 0.376 0.028 0.593-0.003 0.16-0.014 0.625-0.014 0.71 1.04 182.73 148.187 331.399 327.884 331.399z"  horiz-adv-x="1024" />

    
    <glyph glyph-name="accessory" unicode="&#59101;" d="M842.72 636.096a159.04 159.04 0 0 1-113.056 46.912h-0.16a158.592 158.592 0 0 1-112.768-46.656l-0.096-0.064-294.528-294.528a95.968 95.968 0 0 1 68.128-163.712c24.512 0 49.024 9.28 67.648 27.968l294.496 294.496a31.968 31.968 0 1 1-45.248 45.248l-294.496-294.496a31.872 31.872 0 0 0-45.088 0.16 31.552 31.552 0 0 0-0.192 45.088l294.496 294.496a95.04 95.04 0 0 0 67.648 28h0.096a95.52 95.52 0 0 0 67.872-28.16c18.112-18.112 28.096-42.24 28.128-67.84a95.136 95.136 0 0 0-27.968-67.776l-79.52-79.52-0.512-0.48-220.416-220.48a160.32 160.32 0 0 0-226.432-0.096A158.912 158.912 0 0 0 224 267.776c0 42.816 16.672 83.04 46.912 113.28l300.288 300.32a31.968 31.968 0 1 1-45.248 45.248l-300.288-300.288A222.848 222.848 0 0 1 160 267.776c0-59.872 23.264-116.16 65.504-158.4a223.168 223.168 0 0 1 158.336-65.44 223.68 223.68 0 0 1 158.592 65.6l311.456 311.424a31.68 31.68 0 0 1 7.104 11.072c18.496 26.56 28.64 57.92 28.608 91.04a159.104 159.104 0 0 1-46.88 113.024"  horiz-adv-x="1024" />

    
    <glyph glyph-name="account" unicode="&#58890;" d="M962.4-116.8s0-0.8 0 0v0zM704 557.6c0 143.2-115.2 260-258.4 260s-258.4-116.8-258.4-260 116-260 258.4-260 258.4 116.8 258.4 260zM232 557.6c0 118.4 96 214.4 213.6 214.4s213.6-96 213.6-214.4-96-214.4-213.6-214.4-213.6 96-213.6 214.4zM456.8 274.4c196.8 0 361.6-136 394.4-324h45.6c-33.6 213.6-219.2 368.8-440.8 368.8-221.6 0-406.4-155.2-440.8-368.8h45.6c35.2 188.8 199.2 324 396 324zM770.4 317.6l-24 8.8 20.8 14.4c65.6 46.4 104.8 122.4 103.2 202.4-1.6 128-102.4 232.8-228 241.6v-47.2c100-8.8 180-92.8 180.8-194.4 0.8-52.8-19.2-102.4-56-140.8-36.8-37.6-86.4-59.2-139.2-60-24.8 0-50.4 0-75.2-1.6-15.2-1.6-41.6 0-54.4-9.6-1.6-0.8-3.2 0-4.8 0l-9.6-12c-0.8-1.6-2.4-3.2-4-4.8 0.8-1.6-0.8-16 0-17.6 12-4 71.2 0 156.8-2.4 179.2-1.6 326.4-160.8 340.8-338.4l47.2-3.2c-9.6 156-108 310.4-254.4 364.8z"  horiz-adv-x="1024" />

    
    <glyph glyph-name="mokuaiguanli" unicode="&#58900;" d="M896 864h-256a96 96 0 0 1-96-96v-256a96 96 0 0 1 96-96h256a96 96 0 0 1 96 96V768a96 96 0 0 1-96 96z m32-352a32 32 0 0 0-32-32h-256a32 32 0 0 0-32 32V768a32 32 0 0 0 32 32h256a32 32 0 0 0 32-32zM64 672a32 32 0 0 1 12.16 2.56 37.12 37.12 0 0 1 10.56 6.72 32 32 0 0 1 6.72 34.88 32 32 0 0 1-6.72 10.56A32 32 0 0 1 57.6 736a20.8 20.8 0 0 1-5.76-1.92 23.68 23.68 0 0 1-5.76-2.88l-4.8-3.84a32 32 0 0 1-6.72-10.56A32 32 0 0 1 32 704a32 32 0 0 1 32-32zM149.76 768a32 32 0 0 1 17.6 5.44 160 160 0 0 0 115.2 24.32 32 32 0 1 1 10.56 64 225.92 225.92 0 0 1-160-34.24A32 32 0 0 1 149.76 768zM377.92 792a32 32 0 0 1-2.56-45.12A160 160 0 0 0 416 640v-128a32 32 0 0 0-32-32H256a160 160 0 0 0-150.72 106.56 32 32 0 0 1-60.16-21.44A224 224 0 0 1 256 416h128a96 96 0 0 1 96 96V640a224 224 0 0 1-56.96 149.44 32 32 0 0 1-45.12 2.56zM896 352h-256a96 96 0 0 1-96-96v-256a96 96 0 0 1 96-96h256a96 96 0 0 1 96 96v256a96 96 0 0 1-96 96z m32-352a32 32 0 0 0-32-32h-256a32 32 0 0 0-32 32v256a32 32 0 0 0 32 32h256a32 32 0 0 0 32-32zM384 352H128a96 96 0 0 1-96-96v-256a96 96 0 0 1 96-96h256a96 96 0 0 1 96 96v256a96 96 0 0 1-96 96z m32-352a32 32 0 0 0-32-32H128a32 32 0 0 0-32 32v256a32 32 0 0 0 32 32h256a32 32 0 0 0 32-32z"  horiz-adv-x="1024" />

    
    <glyph glyph-name="fangdajing" unicode="&#58921;" d="M1070.481569-106.716863a46.642196 46.642196 0 0 0-65.897412 0l-87.501804 87.481726a46.642196 46.642196 0 0 0 0 65.91749 46.642196 46.642196 0 0 0 65.897412 0l87.501804-87.501804a46.642196 46.642196 0 0 0 0-65.91749z m-562.296471 8.934902C227.689412-97.781961 0 124.847686 0 399.09898 0 673.370353 227.689412 896 508.185098 896c280.495686 0 508.185098-222.629647 508.185098-496.90102 0-274.251294-227.689412-496.880941-508.185098-496.880941z m11.284078 926.017255c-249.09302 0-451.704471-197.531608-451.70447-440.420392s202.591373-440.420392 451.70447-440.420392S971.193725 144.926118 971.193725 387.814902 768.602353 828.235294 519.469176 828.235294z m-88.104156-126.233098c-96.456784-24.294902-202.531137-152.294902-217.549804-261.541647 3.212549 25.379137-1.064157-18.773333-26.784628-18.773333-16.062745 0-28.912941 13.251765-28.912941 29.796392 0 4.417255 1.064157 8.83451 3.212549 12.147451 28.912941 135.730196 138.219922 254.915765 249.675294 292.442353-3.212549 0 3.212549 4.417255 11.786039 4.417255 16.062745 0 28.912941-13.251765 28.912942-29.796392 0-13.251765-8.553412-24.294902-20.339451-28.712157z"  horiz-adv-x="1084" />

    
    <glyph glyph-name="sanjiaoleft" unicode="&#58913;" d="M639.955 383.998l-255.91 191.442v-382.883l255.911 191.439z"  horiz-adv-x="1024" />

    
    <glyph glyph-name="business-services" unicode="&#59254;" d="M945 248v145.3l-91.4 18.3c-7.7 35.9-20.7 70.8-38.1 103.3l64.6 54.7-98.3 121.2-64.6-54.7c-28 23.4-58.9 42.9-92 57.1v94.4l-139.1 26.2v-93.9c-33-1.6-64-9-92-21.4l-64.6 78.5-98.3-81.3 64.6-78.5c-17.4-25.1-30.5-54.1-38.1-86.2l-91.4 18.3v-141.1l91.4-18.8c7.7-35.2 20.7-69.5 38.1-101.7l-64.6-52.2 98.3-121.2 64.6 52.2c28-23.8 58.9-43.8 92-58.8v-93.9l139.1-30.3v94.4c33 0.9 64 7.7 92 19.8l64.6-80.9 98.3 81.3-64.6 80.9c17.4 25.5 30.5 55 38.1 87.8l91.4-18.8zM555.6 278.2c-65.1 13.5-117.9 78.6-117.9 145.4s52.8 110.5 117.9 97.5 117.9-78 117.9-145.4c0.1-67.3-52.7-111-117.9-97.5zM250.6 105.5l-8.8-20.8 87.8 29.6-17.8 35.3zM78.8 520.2l104.9-33.2-17 62.5zM533.4 12l3.3-57.3 89.1 29.3zM264.1 710.6l65.7 66.1-88.2-29zM857.2 218.7v145.3l-91.4 18.3c-7.7 35.9-20.7 70.8-38.1 103.3l64.6 54.7-98.3 121.3-64.6-54.7c-28 23.4-58.9 42.9-92 57.1v94.4l-139.1 26.1v-93.9c-33-1.6-64-9-92-21.4l-64.6 78.5-98.3-81.3 64.6-78.5c-17.4-25.1-30.5-54.1-38.1-86.2l-91.4 18.3v-141.1l91.4-18.8c7.7-35.2 20.7-69.5 38.1-101.7l-64.6-52.2 98.3-121.2 64.6 52.2c28-23.8 58.9-43.8 92-58.8v-93.9l139.1-30.3v94.4c33 0.9 64 7.7 92 19.8l64.6-80.9 98.3 81.3-64.6 80.9c17.4 25.5 30.5 55 38.1 87.8l91.4-18.8zM467.8 248.9c-65.1 13.5-117.9 78.6-117.9 145.4s52.8 110.5 117.9 97.5 117.9-78 117.9-145.4c0.1-67.3-52.7-111-117.9-97.5zM398.1 784.8l138.9-27 87.8 29.6-138.2 26zM694.1-12.4l88.1 29.6 97.9 80.6-87.8-29.2zM856.7 218.2l88.8 29.9-1 144.8-86.8-29zM880.5 568.8l-98.6 121.3-87.8-28.9 97.6-121.3z"  horiz-adv-x="1024" />

    
    <glyph glyph-name="deal-icon" unicode="&#59007;" d="M499.865606 170.751851a24.371188 24.371188 0 1 1 48.793576 0v94.207953h154.931122a24.371188 24.371188 0 0 1 0 48.844775h-154.931122V420.710126h154.931122a24.371188 24.371188 0 1 1-0.0512 48.793575h-154.931122v25.292788l114.636742 114.636742a24.371188 24.371188 0 1 1-34.508782 34.457583l-104.089548-104.089548-104.089548 104.089548a24.371188 24.371188 0 1 1-34.457583-34.457583l113.766343-113.766343v-26.163187H344.883284a24.371188 24.371188 0 1 1 0-48.793575h154.931122v-106.956747H344.883284a24.371188 24.371188 0 0 1 0-48.844775h154.931122v-94.156753zM219.750546 24.524724A461.823769 461.823769 0 0 0 48.742632 383.999744C48.742632 639.436416 256.563328 847.205912 512 847.205912c10.751995 0 21.452789-0.3584 31.999984-1.075199a24.319988 24.319988 0 1 1 3.276798 48.639976A505.241347 505.241347 0 0 1 512 895.999488C229.632141 895.999488 0.000256 666.316403 0.000256 383.999744c0-127.334336 47.308776-247.551876 130.867135-340.78703l-86.476757 18.278391a24.678388 24.678388 0 0 1-28.876786-18.79039 24.422388 24.422388 0 0 1 18.841591-28.927986l167.065516-35.276782a24.371188 24.371188 0 0 1 28.927986 18.79039 24.268788 24.268788 0 0 1-4.095998 19.046391 24.934388 24.934388 0 0 1-6.502397 8.191996zM881.100615 737.381967l81.56156-19.86559a24.422388 24.422388 0 0 1 11.468794 47.359977l-167.116717 40.755179a24.473588 24.473588 0 0 1-29.439985-17.919991c-0.3072-1.382399-0.0512-2.764799-0.1536-4.147198a24.166388 24.166388 0 0 1 8.857596-26.265587 465.510167 465.510167 0 0 0 188.927905-373.350213c0-255.436672-207.820696-463.257368-463.257368-463.257368a467.250966 467.250966 0 0 0-81.254359 7.116796 24.319988 24.319988 0 0 1-28.211186-19.81439 24.268788 24.268788 0 0 1 19.71199-28.211186c29.439985-5.119997 59.64797-7.782396 89.804755-7.782396 282.367859 0 511.999744 229.631885 511.999744 511.999744 0 132.300734-52.633574 258.867071-142.899129 353.382223z"  horiz-adv-x="1024" />

    
    <glyph glyph-name="yinhangqia" unicode="&#59702;" d="M960 640v-64H64v64c0 35.2 28.8 64 64 64h768c35.2 0 64-28.8 64-64z m0-128v-384c0-35.2-28.8-64-64-64H128c-35.2 0-64 28.8-64 64V512h896zM256 256H128v-32h128v32z m128 64H128v-32h256v32z"  horiz-adv-x="1024" />

    
    <glyph glyph-name="yinhangqia-xianxing" unicode="&#59703;" d="M896 704H128c-35.2 0-64-28.8-64-64v-512c0-35.2 28.8-64 64-64h768c35.2 0 64 28.8 64 64V640c0 35.2-28.8 64-64 64z m0-576H128V512h768v-384zM128 576v64h768v-64H128z m320-288H192v32h256v-32z m-128-64H192v32h128v-32z"  horiz-adv-x="1024" />

    
    <glyph glyph-name="hongbao-xianxing" unicode="&#59704;" d="M768 832H256c-35.2 0-64-28.8-64-64v-768c0-35.2 28.8-64 64-64h512c35.2 0 64 28.8 64 64V768c0 35.2-28.8 64-64 64z m0-64v-53.6L512 672l-256 42.4V768h512z m-512-768V682.4L512 640l256 42.4V0H256z m393.6 406.4L563.2 320H640v-64H544v-32h96v-64H544v-96h-64V160H384v64h96v32H384v64h76.8L374.4 406.4l45.6 45.6L512 359.2l92 92 45.6-44.8z"  horiz-adv-x="1024" />

    
    <glyph glyph-name="hongbao" unicode="&#59705;" d="M192 693.6V0c0-35.2 28.8-64 64-64h512c35.2 0 64 28.8 64 64V693.6L512 640l-320 53.6z m412.8-242.4l45.6-45.6L563.2 320H640v-64H544v-32h96v-64H544v-96h-64V160H384v64h96v32H384v64h76.8L374.4 406.4l45.6 45.6L512 359.2l92.8 92zM768 832H256c-35.2 0-64-28.8-64-64v-42.4L512 672l320 53.6V768c0 35.2-28.8 64-64 64z"  horiz-adv-x="1024" />

    
    <glyph glyph-name="yewupeizhi" unicode="&#59327;" d="M932.446198 153.853993V164.680943A201.284144 201.284144 0 0 1 731.333457 365.793684H585.069646v104.87001C670.128337 500.873455 731.333457 581.247134 731.333457 676.604283a219.395717 219.395717 0 0 1-438.791434 0c0-95.371433 61.20512-175.687977 146.263811-205.940589v-104.87001H292.542023A201.284144 201.284144 0 0 1 91.429282 164.680943v-10.82695a146.263811 146.263811 0 1 1 109.697859 0V164.680943a91.543434 91.543434 0 0 0 91.414882 91.414882h146.263811v-111.668992c-43.50777-25.381913-73.131906-72.03207-73.131905-126.009702a146.263811 146.263811 0 1 1 292.527622 0c0 53.977631-29.624135 100.627788-73.131905 126.009702V256.095825H731.333457a91.543434 91.543434 0 0 0 91.414882-91.414882v-10.82695a146.263811 146.263811 0 1 1 109.697859 0z"  horiz-adv-x="1024" />

    
    <glyph glyph-name="jiantouyou" unicode="&#58925;" d="M312.888889-99.555556c-17.066667 0-28.444444 5.688889-39.822222 17.066667-22.755556 22.755556-17.066667 56.888889 5.688889 79.644445l364.088888 329.955555c11.377778 11.377778 17.066667 22.755556 17.066667 34.133333 0 11.377778-5.688889 22.755556-17.066667 34.133334L273.066667 708.266667c-22.755556 22.755556-28.444444 56.888889-5.688889 79.644444 22.755556 22.755556 56.888889 28.444444 79.644444 5.688889l364.088889-312.888889c34.133333-28.444444 56.888889-73.955556 56.888889-119.466667s-17.066667-85.333333-51.2-119.466666l-364.088889-329.955556c-11.377778-5.688889-28.444444-11.377778-39.822222-11.377778z"  horiz-adv-x="1024" />

    
    <glyph glyph-name="jiantouxia" unicode="&#58926;" d="M517.688889 99.555556c-45.511111 0-85.333333 17.066667-119.466667 51.2L73.955556 514.844444c-22.755556 22.755556-17.066667 56.888889 5.688888 79.644445 22.755556 22.755556 56.888889 17.066667 79.644445-5.688889l329.955555-364.088889c5.688889-5.688889 17.066667-11.377778 28.444445-11.377778s22.755556 5.688889 34.133333 17.066667l312.888889 364.088889c22.755556 22.755556 56.888889 28.444444 79.644445 5.688889 22.755556-22.755556 28.444444-56.888889 5.688888-79.644445L637.155556 156.444444c-28.444444-39.822222-68.266667-56.888889-119.466667-56.888888 5.688889 0 0 0 0 0z"  horiz-adv-x="1024" />

    
    <glyph glyph-name="fenlei" unicode="&#58927;" d="M575.68 160a160.32 160.32 0 1 1 160.32 160.32H599.893333c-13.461333 0-24.192-10.752-24.192-24.192V160zM736 362.666667A202.666667 202.666667 0 1 0 533.333333 160V296.106667A66.432 66.432 0 0 0 599.872 362.666667H736zM490.666667 160a202.666667 202.666667 0 1 0-202.666667 202.666667h136.128A66.432 66.432 0 0 0 490.666667 296.128V160z m-202.666667 160.32a160.32 160.32 0 1 1 160.32-160.32V296.106667c0 13.44-10.730667 24.192-24.192 24.192H288zM533.333333 608.021333A202.666667 202.666667 0 1 0 736 405.333333H599.893333A66.432 66.432 0 0 0 533.333333 471.872V608z m202.666667-160.341333a160.32 160.32 0 1 1-160.32 160.32v-136.128c0-13.44 10.730667-24.192 24.192-24.192H736zM448.32 608a160.32 160.32 0 1 1-160.32-160.32h136.128c13.461333 0 24.192 10.752 24.192 24.192V608zM288 405.333333A202.666667 202.666667 0 1 0 490.666667 608v-136.128A66.432 66.432 0 0 0 424.128 405.333333H288z"  horiz-adv-x="1024" />

    
    <glyph glyph-name="icon_yewubankuaiguanli" unicode="&#59555;" d="M745.6512 324.9664l93.5936 13.2608 71.5008-8.2176v205.44H0v-298.8288h596.9664l94.3104 109.2864zM910.7456 330.0096l-71.5008 8.2176-93.5936-13.2608-54.3744 20.9408-94.3104-109.2864h313.7792zM745.6512 324.9664l93.5936 13.2608 71.5264-8.2176v49.5616H566.2208v-106.9056h-221.6704v106.9056H0v-350.8224c0-16.3328 13.2352-29.5424 29.5424-29.5424h362.5216l299.2128 346.7008 54.3744-20.9408zM839.2448 338.2272l-93.5936-13.2608-54.3744 20.9152-299.2128-346.6752h489.1392c16.3328 0 29.5424 13.2352 29.5424 29.5424V330.0096l-71.5008 8.2176zM399.4368 431.1552h106.9824v-103.168h-106.9824zM344.3968 486.4768h217.856v-58.112h348.4928v190.0288a29.5424 29.5424 0 1 0-34.4576 29.056h-8.9088a51.6096 51.6096 0 0 1-7.168 0.4864h-250.8032V697.9584c0 38.9632-33.0752 70.8608-73.472 70.8608H374.784c-40.3968 0-73.472-31.872-73.472-70.8608V647.936H50.5344c-2.432 0-4.8128-0.1792-7.168-0.4864h-8.8832a29.4656 29.4656 0 0 0-4.9152-58.5984A29.568 29.568 0 0 0 0 618.3936v-190.0288h344.3968v58.112z m37.1712 178.0736c0 20.5056 17.3824 37.2736 38.656 37.2736h70.3232c21.248 0 38.6304-16.768 38.6304-37.2736v-16.6144h-147.6096v16.6144zM29.5424 588.8256a29.5424 29.5424 0 0 1 4.9152 58.5984H24.6272A29.44 29.44 0 0 1 0 618.3936c0-16.3328 13.2352-29.568 29.5424-29.568zM886.1184 647.4496h-9.8304a29.4656 29.4656 0 0 1 4.9152-58.5984 29.4912 29.4912 0 1 1 4.9152 58.5984zM894.72 302.7456c-27.7504 16.6656-59.1104 30.72-101.0944 16.1024-50.56-17.5872-89.5232-61.2864-89.5232-117.4272a122.368 122.368 0 1 1 229.9648 58.3168c-9.4464 17.3824-22.5024 32.896-39.3472 43.008z m-18.4064-151.1936a67.968 67.968 0 0 0-49.8688-20.6592c-19.4816 0-36.096 6.8864-49.8944 20.6592a67.968 67.968 0 0 0-20.6592 49.8688c0 19.456 6.8864 36.096 20.6592 49.8688a68.0192 68.0192 0 0 0 49.8944 20.6848c19.4816 0 36.096-6.8864 49.8688-20.6848 13.7728-13.7728 20.6592-30.4128 20.6592-49.8688a67.84 67.84 0 0 0-20.6592-49.8688zM665.9328 318.2592a12.8512 12.8512 0 0 1-1.8944-3.8912l27.2128 31.5392c-12.416-12.288-20.864-21.4784-25.3184-27.648zM839.2448 338.2272l144-16.5632c-7.1168 8.9344-20.0192 22.0928-39.5008 40.064a9.856 9.856 0 0 1-6.4256 2.56 8.32 8.32 0 0 1-6.1696-2.304l-36.1728-27.2384-0.3584-0.2816a158.1312 158.1312 0 0 1-23.1424 9.5232l-0.1024 0.5888-7.1168 46.7456a7.68 7.68 0 0 1-2.944 5.5296 9.728 9.728 0 0 1-6.2976 2.2016h-57.1136c-4.9664 0-8.064-2.4064-9.2672-7.2192-2.2016-8.4992-4.6848-24.2944-7.3984-47.36l-0.0512-0.4864a148.1984 148.1984 0 0 1-23.3984-9.7792l-0.384 0.2816-35.1232 27.2384a10.9312 10.9312 0 0 1-6.7072 2.56c-3.7632 0-11.8784-6.1184-24.2944-18.3808l54.3744-20.9152 93.5936 13.2352zM1016.5248 239.8464l-46.848 7.168c2.176-6.9632 3.2512-10.7008 3.2512-11.008a125.952 125.952 0 0 0-3.2512 9.9584l-0.2304 0.0512c-2.56 8.2176-6.0672 16.64-10.5472 25.216a491.776 491.776 0 0 0 9.4208 12.416l4.4544 5.7344c6.1696 7.8336 10.5472 13.4912 13.1328 17.1008a9.856 9.856 0 0 1 2.048 5.9136 8.2432 8.2432 0 0 1-1.792 5.6576c-0.7424 1.0496-1.9712 2.4576-2.944 3.6608l-144 16.5632-93.5936-13.2608-54.3744 20.9152-27.1872-31.5648v-0.0256c-0.2048-0.6912-0.4096-1.3824-0.4096-2.0224 0-2.048 0.8448-4.096 2.56-6.1696a587.5712 587.5712 0 0 0 27.52-35.5072 126.464 126.464 0 0 1-10.0352-23.6544l-0.128-0.0256-47.7184-7.168a7.7312 7.7312 0 0 1-4.8896-3.3536 9.8048 9.8048 0 0 1-2.048-5.9136v-57.088c0-2.2272 0.6656-4.2496 2.048-6.0416a8.0896 8.0896 0 0 1 5.4016-3.2256l46.7968-6.912 0.3072-0.0512c2.3808-8.3968 5.9136-16.8704 10.5216-25.4464a9.8048 9.8048 0 0 1-29.0304-41.1904c0-2.2272 0.5888-4.1728 1.8176-5.9136 6.6816-9.2672 20.8384-23.6544 42.4448-43.1872a9.344 9.344 0 0 1 12.8768-0.5376l35.8912 27.2384 0.3584 0.3072c7.04-3.6096 14.7456-6.784 23.168-9.5232l0.0768-0.5888 7.1168-46.7456a7.7056 7.7056 0 0 1 2.944-5.5296 9.7792 9.7792 0 0 1 6.3232-2.176h57.1136c4.9664 0 8.0384 2.3808 9.2416 7.1936 2.2016 8.4992 4.6848 24.32 7.424 47.36l0.0512 0.4608c8.0384 2.5856 15.8464 5.8368 23.3984 9.7792l0.384-0.2816c0.256 0.128 0.4864 0.3328 0.7424 0.4608l34.3552-26.9056c2.4064-1.536 4.6336-2.304 6.7072-2.304 3.7632 0 11.8272 6.0928 24.1664 18.2784 12.3648 12.16 20.8384 21.4272 25.472 27.776a8.4992 8.4992 0 0 1 2.304 5.9136 9.9072 9.9072 0 0 1-2.56 6.4256 642.4064 642.4064 0 0 0-27.2128 35.0976c3.328 6.2208 6.5536 13.7728 9.728 22.7584l0.128 0.0256c0.128 0.3584 0.1536 0.7424 0.256 1.1008l47.2064 7.1424a7.936 7.936 0 0 1 5.1456 3.328 10.5728 10.5728 0 0 1 1.9712 5.9392v57.1136a9.6512 9.6512 0 0 1-2.0736 6.0416 8.192 8.192 0 0 1-5.4016 3.2256z m-190.08-152.576a114.176 114.176 0 1 0-31.4624 223.9488 113.7664 113.7664 0 0 0 95.5904-15.232 114.176 114.176 0 0 0-64.128-208.7168z"  horiz-adv-x="1024" />

    
    <glyph glyph-name="zhongbiao" unicode="&#58964;" d="M513.861818-87.04c-260.654545 0-472.901818 212.247273-472.901818 472.901818S253.207273 855.04 513.861818 855.04s472.901818-212.247273 472.901818-472.901818-215.970909-469.178182-472.901818-469.178182z m0 867.607273C294.167273 780.567273 115.432727 601.832727 115.432727 382.138182c0-219.694545 178.734545-398.429091 398.429091-398.429091 219.694545 0 398.429091 178.734545 398.429091 398.429091-3.723636 219.694545-182.458182 398.429091-398.429091 398.429091zM722.385455 296.494545h-7.447273l-212.247273 48.407273c-18.618182 3.723636-29.789091 18.618182-29.789091 37.236364V713.541818c0 22.341818 14.894545 37.236364 37.236364 37.236364s37.236364-14.894545 37.236363-37.236364V411.927273l182.458182-44.683637c18.618182-3.723636 33.512727-26.065455 26.065455-44.683636 0-14.894545-14.894545-26.065455-33.512727-26.065455z"  horiz-adv-x="1024" />

    
    <glyph glyph-name="YW" unicode="&#58908;" d="M1024-67.76470600000005v-60.235294H0v60.235294h1024zM120.470588 293.647059h120.470588v-301.176471h60.235295V353.88235299999997H60.235294v-361.411765h60.235294v301.176471z m301.176471 180.705882h120.470588v-481.882353h60.235294V534.5882349999999H361.411765v-542.117647h60.235294V474.352941z m301.17647 240.941177h120.470589v-722.82353h60.235294V775.529412h-240.941177v-783.058824h60.235294V715.294118z"  horiz-adv-x="1024" />

    
    <glyph glyph-name="yewuchaxun" unicode="&#59100;" d="M262.4 627.2v-102.4H384V627.2H262.4z m96-76.8h-64v51.2h64v-51.2zM448 627.2v-102.4h121.6V627.2H448z m89.6-76.8h-64v51.2h64v-51.2zM262.4 473.6H512V448H262.4zM262.4 403.2h172.8v-25.6H262.4zM755.2 339.2l-51.2 57.6c12.8 19.2 19.2 38.4 19.2 64-6.4 44.8-51.2 76.8-96 70.4-44.8-12.8-76.8-57.6-70.4-102.4 6.4-44.8 51.2-76.8 96-70.4 12.8 0 19.2 6.4 32 12.8l44.8-51.2c6.4-6.4 19.2-6.4 25.6 0 6.4 6.4 6.4 12.8 0 19.2zM588.8 435.2c-6.4 25.6 19.2 57.6 44.8 57.6 25.6 6.4 51.2-12.8 57.6-38.4 6.4-25.6-12.8-51.2-38.4-57.6-32-6.4-57.6 12.8-64 38.4zM256 185.6c-6.4 0-12.8-6.4-12.8-19.2 0-12.8 6.4-19.2 12.8-19.2h512c6.4 0 12.8 6.4 12.8 19.2 0 12.8-6.4 19.2-12.8 19.2H256zM825.6 243.2c12.8 0 19.2 6.4 19.2 19.2V697.6c0 12.8-6.4 19.2-19.2 19.2H192c-12.8-6.4-19.2-12.8-19.2-19.2v-435.2c0-12.8 6.4-19.2 19.2-19.2h633.6z m-620.8 38.4V678.4h601.6v-396.8H204.8zM768 89.6H256c-6.4 0-12.8-6.4-12.8-19.2s6.4-19.2 12.8-19.2h512c6.4 0 12.8 6.4 12.8 19.2s0 19.2-12.8 19.2z"  horiz-adv-x="1024" />

    
    <glyph glyph-name="erji-guanliyuanshouye" unicode="&#60097;" d="M659.2 384c76.8 51.2 134.4 134.4 134.4 236.8C787.2 774.4 665.6 896 512 896S236.8 774.4 236.8 620.8c0-102.4 51.2-185.6 134.4-236.8-204.8-64-352-256-352-480 0-19.2 12.8-32 32-32s32 12.8 32 32c0 230.4 179.2 416 396.8 435.2-19.2-44.8-64-166.4-64-262.4 0-134.4 83.2-172.8 89.6-172.8h25.6c6.4 0 89.6 38.4 89.6 172.8 0 96-44.8 217.6-64 262.4 224-19.2 396.8-204.8 396.8-435.2 0-19.2 12.8-32 32-32s32 12.8 32 32C1011.2 128 864 320 659.2 384zM300.8 620.8C300.8 736 396.8 832 512 832c115.2 0 211.2-96 211.2-211.2S627.2 403.2 512 403.2c-115.2 0-211.2 96-211.2 217.6zM512-32c-12.8 12.8-38.4 44.8-38.4 102.4 0 57.6 19.2 128 38.4 179.2 19.2-51.2 38.4-121.6 38.4-179.2 0-57.6-25.6-89.6-38.4-102.4z"  horiz-adv-x="1024" />

    
    <glyph glyph-name="svg" unicode="&#59845;" d="M930.281847 757.367339A647.779809 647.779809 0 0 0 545.996664 888.336415a32.767869 32.767869 0 0 1-46.284615-4.198384c-80.260799-98.856565-286.923652-124.9275-385.411578-124.9275a40.01776 40.01776 0 0 1-22.917029-9.154523A31.190915 31.190915 0 0 1 81.92172 727.630497v-362.842708C81.92172 208.669373 325.509866-107.520082 524.881868-107.520082 733.654153-107.520082 962.558198 215.939744 962.558198 353.278075V725.746345a31.948672 31.948672 0 0 1-32.194431 31.620994z m-96.910972-562.62431l-79.564482 64.798461c11.837393 21.012396 7.679969 54.107944 0 84.827821a139.140563 139.140563 0 0 1-139.898321 102.153831 125.419018 125.419018 0 0 1-127.118851-122.63375c0-81.284795 52.858669-141.311435 135.740897-141.311434a151.367075 151.367075 0 0 1 88.964764 29.163403L796.670861 142.334919c-75.07938-97.771129-179.772721-186.715413-271.809472-186.715413-82.943668 0-182.47607 77.823689-258.763765 169.98332a30.719877 30.719877 0 0 1 2.887668 12.799948A213.810345 213.810345 0 0 0 433.479994 345.086108a31.416194 31.416194 0 0 1 4.485102 59.84232 124.354063 124.354063 0 0 0-78.335687 115.0357 127.180291 127.180291 0 0 0 254.299143 0 32.255871 32.255871 0 0 1 64.511742 0 191.630593 191.630593 0 0 1-383.179267 0 185.568538 185.568538 0 0 1 60.292879-136.867292 276.253615 276.253615 0 0 1-143.359427-183.909665C172.238159 261.118444 146.433462 322.210039 146.433462 364.726349V696.849181c79.359683 3.563506 275.864497 22.876068 382.360071 124.743181a714.093784 714.093784 0 0 1 369.355322-126.627334V353.278075c-0.12288-37.887848-25.415578-97.279611-64.77798-158.616966z"  horiz-adv-x="1024" />

    
    <glyph glyph-name="add-r" unicode="&#59697;" d="M448 405.333333V512h85.333333v-106.666667H640v-85.333333h-106.666667V213.333333h-85.333333v106.666667H341.333333v85.333333h106.666667z m42.666667-405.333333a362.666667 362.666667 0 1 0 0 725.333333 362.666667 362.666667 0 0 0 0-725.333333z m0 85.333333a277.333333 277.333333 0 1 1 0 554.666667 277.333333 277.333333 0 0 1 0-554.666667z"  horiz-adv-x="1024" />

    
    <glyph glyph-name="also-loan" unicode="&#59698;" d="M802.730667 362.666667l91.136-91.136-60.330667-60.330667L682.666667 362.069333l0.597333 0.597334-0.597333 0.64 150.869333 150.826666 60.330667-60.330666-91.136-91.136zM554.666667 298.666667h85.333333v-85.333334h-85.333333v-42.666666h-85.333334v42.666666H384v85.333334h85.333333v42.666666H384v85.333334h67.669333L384 494.336 444.330667 554.666667l67.498666-67.498667L579.328 554.666667l60.373333-60.330667L572.032 426.666667H640v-85.333334h-85.333333v-42.666666z m256 256h-85.333334V597.333333H256v-469.333333h469.333333v42.666667h85.333334v-128H170.666667V682.666667h640v-128z"  horiz-adv-x="1024" />

    
    <glyph glyph-name="attendance" unicode="&#59700;" d="M527.488 300.842667h0.042667l-60.330667-60.373334L341.333333 366.336 401.664 426.666667l65.493333-65.493334L583.850667 477.866667l60.330666-60.330667-116.693333-116.693333zM341.333333 725.333333v-85.333333H256V725.333333h85.333333z m384 0v-85.333333h-85.333333V725.333333h85.333333z m128-85.333333v-554.666667H128V640h725.333333zM213.333333 554.666667v-384h554.666667V554.666667H213.333333z"  horiz-adv-x="1024" />

    
    <glyph glyph-name="bill" unicode="&#59706;" d="M405.333333 725.333333c19.456 25.898667 50.432 42.666667 85.333334 42.666667 34.901333 0 65.877333-16.768 85.333333-42.666667H768v-725.333333H213.333333V725.333333h192zM384 640H298.666667v-554.666667h384V640h-85.333334v-42.666667H384V640z m0-170.666667h213.333333v-85.333333H384v85.333333z m0-128h213.333333v-85.333333H384v85.333333z"  horiz-adv-x="1024" />

    
    <glyph glyph-name="calendar" unicode="&#59707;" d="M341.333333 725.333333v-85.333333H256V725.333333h85.333333z m384 0v-85.333333h-85.333333V725.333333h85.333333z m128-85.333333v-554.666667H128V640h725.333333z m-85.333333-85.333333H213.333333v-384h554.666667V554.666667z m-384-85.333334v-85.333333H256v85.333333h128z m170.666667 0v-85.333333h-128v85.333333h128z m170.666666 0v-85.333333h-128v85.333333h128z m-341.333333-128v-85.333333H256v85.333333h128z m170.666667 0v-85.333333h-128v85.333333h128z m170.666666 0v-85.333333h-128v85.333333h128z"  horiz-adv-x="1024" />

    
    <glyph glyph-name="camera" unicode="&#59708;" d="M384 554.666667H213.333333v-384h554.666667V554.666667h-170.666667V597.333333H384v-42.666666z m469.333333 85.333333v-554.666667H128V640h725.333333zM341.333333 682.666667h298.666667v-42.666667H341.333333V682.666667z m149.333334-469.333334a149.333333 149.333333 0 1 0 0 298.666667 149.333333 149.333333 0 0 0 0-298.666667z m0 85.333334a64 64 0 1 1 0 128 64 64 0 0 1 0-128z"  horiz-adv-x="1024" />

    
    <glyph glyph-name="close" unicode="&#59709;" d="M562.858667 365.866667l271.530666 271.530666-60.330666 60.373334-271.530667-271.530667-271.530667 271.530667L170.666667 637.397333l271.530666-271.530666L170.666667 94.336l60.330666-60.330667 271.530667 271.530667 271.530667-271.530667 60.330666 60.330667-271.530666 271.530667z"  horiz-adv-x="1024" />

    
    <glyph glyph-name="commodity" unicode="&#59710;" d="M768 469.333333h-128v-53.333333V426.666667h-85.333333v42.666666h-128v-42.666666H341.333333v-10.666667V469.333333H213.333333v-341.333333h554.666667v341.333333z m42.666667 85.333334h42.666666v-512H128V554.666667h213.333333v21.333333a149.333333 149.333333 0 1 0 298.666667 0V554.666667h170.666667z m-384 0h128v21.333333a64 64 0 0 1-128 0V554.666667z"  horiz-adv-x="1024" />

    
    <glyph glyph-name="complete" unicode="&#59711;" d="M379.050667 62.890667l1.28-1.28L898.389333 579.669333 838.058667 640 378.709333 180.650667 143.402667 416l-60.373334-60.330667 294.4-294.4 1.621334 1.621334z"  horiz-adv-x="1024" />

    
    <glyph glyph-name="electronics" unicode="&#59717;" d="M533.333333 170.666667v-42.666667h-85.333333v42.666667H128V640h725.333333v-469.333333h-320zM213.333333 554.666667v-298.666667h554.666667V554.666667H213.333333z m426.666667-426.666667v-85.333333H341.333333v85.333333h298.666667z"  horiz-adv-x="1024" />

    
    <glyph glyph-name="extend" unicode="&#59721;" d="M512 252.330667L209.664 554.666667 149.333333 494.336l362.026667-362.026667 0.64 0.597334 0.597333-0.597334L874.666667 494.336 814.293333 554.666667 512 252.330667z"  horiz-adv-x="1024" />

    
    <glyph glyph-name="exit-fullscreen" unicode="&#59722;" d="M282.965333 213.333333H213.333333v85.333334h213.333334v-213.333334H341.333333v65.706667L215.893333 25.6l-60.330666 60.373333L282.965333 213.333333z m415.402667 0H768v85.333334h-213.333333v-213.333334h85.333333v65.706667l125.44-125.44 60.330667 60.373333L698.368 213.333333zM281.002667 512H213.333333v-85.333333h213.333334V640H341.333333v-67.669333L230.997333 682.666667 170.666667 622.336 281.002667 512z m423.594666 0H768v-85.333333h-213.333333V640h85.333333v-71.893333L754.56 682.666667 814.933333 622.336 704.597333 512z"  horiz-adv-x="1024" />

    
    <glyph glyph-name="favorites" unicode="&#59723;" d="M490.666667 78.592l-237.653334-84.48 6.954667 252.074667-153.770667 199.850666 241.92 71.253334L490.581333 725.333333l142.592-208 241.834667-71.296-153.770667-199.850666 6.954667-252.074667-237.610667 84.48z m0 90.581333l148.821333-52.906666-4.309333 157.866666 96.341333 125.269334-151.552 44.672-89.344 130.304-89.301333-130.304-151.552-44.672 96.341333-125.226667-4.352-157.952 148.906667 52.906667z"  horiz-adv-x="1024" />

    
    <glyph glyph-name="forward-r" unicode="&#59724;" d="M614.826667 361.6l1.706666 1.706667-150.869333 150.826666L405.333333 453.802667l92.16-92.202667-92.16-92.16 60.330667-60.373333 150.869333 150.869333-1.706666 1.664zM128 362.666667a362.666667 362.666667 0 1 1 725.333333 0 362.666667 362.666667 0 0 1-725.333333 0z m85.333333 0a277.333333 277.333333 0 1 0 554.666667 0 277.333333 277.333333 0 0 0-554.666667 0z"  horiz-adv-x="1024" />

    
    <glyph glyph-name="fullscreen" unicode="&#59726;" d="M316.330667 128H384v-85.333333H170.666667v213.333333h85.333333v-67.626667L383.36 315.733333l60.330667-60.330666L316.330667 128z m344.405333 0H597.333333v-85.333333h213.333334v213.333333h-85.333334v-71.936L593.664 315.733333 533.333333 255.402667 660.736 128zM316.330667 597.333333H384V682.666667H170.666667v-213.333334h85.333333V537.002667L383.36 409.6 443.733333 469.973333 316.330667 597.333333z m344.362666 0H597.333333V682.666667h213.333334v-213.333334h-85.333334V541.269333l-131.669333-131.626666L533.333333 469.973333 660.693333 597.333333z"  horiz-adv-x="1024" />

    
    <glyph glyph-name="forward" unicode="&#59725;" d="M643.669333 384L341.333333 686.336 401.664 746.666667l362.026667-362.026667-0.597334-0.64 0.597334-0.597333L401.664 21.333333 341.333333 81.706667 643.669333 384z"  horiz-adv-x="1024" />

    
    <glyph glyph-name="free" unicode="&#59727;" d="M533.333333 298.666667h85.333334v-85.333334h-85.333334v-42.666666h-85.333333v42.666666h-85.333333v85.333334h85.333333v42.666666h-85.333333v85.333334h67.669333L362.666667 494.336 422.997333 554.666667l67.498667-67.498667L557.994667 554.666667l60.373333-60.330667L550.698667 426.666667H618.666667v-85.333334h-85.333334v-42.666666zM810.666667 682.666667v-640H170.666667V682.666667h640zM256 597.333333v-469.333333h469.333333V597.333333H256z"  horiz-adv-x="1024" />

    
    <glyph glyph-name="group" unicode="&#59728;" d="M640 99.669333L569.002667 170.666667h-242.346667L256 99.968V85.333333h384v14.336z m84.949333 35.584H725.333333V0H170.666667v135.253333h0.085333L170.666667 135.338667 291.328 256l0.085333-0.085333V256h313.173334v-0.256l120.448-120.405333-0.085334-0.085334zM768 128h32.426667-32.426667l0.042667 21.333333-106.666667 106.666667h-185.002667 256.042667l0.170667-0.128 0.128 0.128 120.704-120.704-0.256-0.213333V0h-319.914667 234.581333L768 128z m-234.709333 176.853333a149.418667 149.418667 0 0 1 106.666666 143.146667v85.333333a149.418667 149.418667 0 0 1-106.666666 143.146667 149.290667 149.290667 0 0 0 191.914666-143.104V448a149.290667 149.290667 0 0 0-191.914666-143.104zM448 682.666667A149.333333 149.333333 0 0 0 597.333333 533.333333v-85.333333a149.333333 149.333333 0 1 0-298.666666 0v85.333333A149.333333 149.333333 0 0 0 448 682.666667z m0-85.333334A64 64 0 0 1 384 533.333333v-85.333333a64 64 0 0 1 128 0v85.333333A64 64 0 0 1 448 597.333333z"  horiz-adv-x="1024" />

    
    <glyph glyph-name="home" unicode="&#59729;" d="M512 128v85.333333h-42.666667v-85.333333h42.666667z m85.333333 0h170.666667v213.333333l-277.504 273.066667L213.333333 341.333333v-213.333333h170.666667v170.666667h213.333333v-170.666667z m256 190.037333V42.666667H128v275.370666H83.2L490.496 725.333333l407.296-407.296H853.333333z"  horiz-adv-x="1024" />

    
    <glyph glyph-name="letter" unicode="&#59734;" d="M720.469333 554.666667H261.248l229.632-175.018667L720.426667 554.666667zM768 495.274667l-275.754667-210.474667-0.426666-1.749333-0.938667 0.682666-0.938667-0.682666-0.469333 1.749333L213.333333 495.36V170.666667h554.666667V495.274667zM853.333333 640v-554.666667H128V640h725.333333z"  horiz-adv-x="1024" />

    
    <glyph glyph-name="like" unicode="&#59736;" d="M460.501333 72.832l30.165334 29.824 30.165333-29.824 30.165333-30.165333-60.330666-60.330667-30.165334 30.165333c-12.458667 12.458667-83.2 81.92-104.106666 102.912-56.832 57.130667-98.986667 103.296-133.845334 148.48C161.28 343.253333 128 413.568 128 480 128 600.064 214.997333 682.666667 330.666667 682.666667c62.933333 0 121.6-28.928 160-78.250667A202.282667 202.282667 0 0 0 650.666667 682.666667C766.336 682.666667 853.333333 600.064 853.333333 480c0-66.432-33.28-136.704-94.549333-216.106667-34.816-45.184-77.013333-91.349333-133.888-148.48-20.864-20.992-91.605333-90.453333-104.064-102.912l-30.165333-30.165333L430.336 42.666667l30.165333 30.165333z m5.930667 53.717333l24.234667-23.893333 24.405333 24.064c25.344 25.002667 41.258667 40.746667 49.365333 48.896 56.746667 57.002667 95.616 100.010667 126.805334 140.373333C744.277333 384.853333 768 437.973333 768 480 768 551.082667 721.066667 597.333333 650.666667 597.333333c-36.394667 0-70.314667-16.64-92.672-45.354666L490.666667 465.493333 423.338667 551.978667A116.949333 116.949333 0 0 1 330.666667 597.333333C260.266667 597.333333 213.333333 551.082667 213.333333 480c0-42.069333 23.722667-95.189333 76.8-163.968 31.146667-40.405333 69.973333-83.413333 126.762667-140.416 8.106667-8.106667 24.021333-23.893333 49.536-49.066667z"  horiz-adv-x="1024" />

    
    <glyph glyph-name="RMB" unicode="&#59758;" d="M448 213.333333v85.333334H213.333333v85.333333h234.666667v54.869333l-228.693333 228.693334 60.330666 60.373333 211.328-211.370667 211.328 211.370667 60.373334-60.373333-229.333334-229.290667V384H768v-85.333333h-234.666667v-85.333334H768v-85.333333h-234.666667v-85.333333h-85.333333v85.333333H213.333333v85.333333h234.666667z"  horiz-adv-x="1024" />

    
    <glyph glyph-name="search" unicode="&#59760;" d="M448 85.333333a320 320 0 1 0 0 640 320 320 0 0 0 0-640z m0 85.333334a234.666667 234.666667 0 1 1 0 469.333333 234.666667 234.666667 0 0 1 0-469.333333z m273.664 0l120.704-120.661334-60.373333-60.373333-120.661334 120.704L721.664 170.666667z"  horiz-adv-x="1024" />

    
    <glyph glyph-name="fuxuankuang-xuanzhong" unicode="&#58887;" d="M228.7 6.5c-50 0-90.7 40.7-90.7 90.6V381.3l752.6 1.5v-285.7c0-50-40.7-90.6-90.7-90.6H228.7z m0 0M800 796.4H228.7c-70.6 0-128-57.4-128-128v-571.3c0-70.6 57.4-128 128-128H800c70.6 0 128 57.4 128 128V668.4c0 70.6-57.4 128-128 128z m53.3-699.2c0-29.4-23.9-53.3-53.3-53.3H228.7c-29.4 0-53.3 23.9-53.3 53.3V668.4c0 29.4 23.9 53.3 53.3 53.3H800c29.4 0 53.3-23.9 53.3-53.3v-571.2zM517.7 263.4c-9.9 0-19.4 3.9-26.4 10.9L373.7 392c-14.6 14.6-14.6 38.2 0 52.8 14.6 14.6 38.2 14.6 52.8 0l91.2-91.2 137.7 137.7c14.6 14.6 38.2 14.6 52.8 0 14.6-14.6 14.6-38.2 0-52.8l-164-164.2c-7-7-16.5-10.9-26.5-10.9z m0 0"  horiz-adv-x="1024" />

    
    <glyph glyph-name="fuxuankuang-weixuanze" unicode="&#58888;" d="M229.8 5.4c-50 0-90.7 40.7-90.7 90.7V380.4l752.9 1.5v-285.8c0-50-40.7-90.7-90.7-90.7H229.8z m0 0M799.4-32H227.8c-70.6 0-128.1 57.5-128.1 128.1V667.7c0 70.6 57.5 128.1 128.1 128.1h571.5c70.6 0 128.1-57.5 128.1-128.1v-571.6c0.1-70.6-57.4-128.1-128-128.1zM227.8 721c-29.4 0-53.3-23.9-53.3-53.3v-571.6c0-29.4 23.9-53.3 53.3-53.3h571.5c29.4 0 53.3 23.9 53.3 53.3V667.7c0 29.4-23.9 53.3-53.3 53.3H227.8z m0 0"  horiz-adv-x="1024" />

    
    <glyph glyph-name="huibaoguanxitu" unicode="&#58941;" d="M90.010112 505.2928v-250.88a25.6 25.6 0 0 1 25.6-25.6h128.8704a25.6 25.6 0 0 1 25.6 25.6V505.344a25.6 25.6 0 0 1-25.6 25.6H115.610112a25.6 25.6 0 0 1-25.6-25.6v-0.0512z m377.856-167.424H360.090112v-109.056c0-50.0224-40.2944-90.624-89.9584-90.624H90.010112A90.2656 90.2656 0 0 0 0.000512 228.864v302.08c0 50.0224 40.2944 90.624 90.0096 90.624h180.0704c49.664 0 89.9584-40.6016 89.9584-90.624v-102.4h107.8784V694.5792h194.9696V835.584c0 33.3824 26.88 60.416 60.1088 60.416h239.9744c33.1776 0 60.0576-27.0336 60.0576-60.416v-362.3936c0-33.28-26.88-60.3648-60.0576-60.3648H722.944512a60.2112 60.2112 0 0 0-59.9552 60.3648V604.0064h-105.0624v-441.344h105.0624v133.12c0 33.3312 26.8288 60.416 59.9552 60.416h240.0256c33.1776 0 60.0576-27.0848 60.0576-60.416V-66.56c0-33.3824-26.88-60.416-60.0576-60.416H722.944512a60.2112 60.2112 0 0 0-59.9552 60.416v138.752h-195.072v265.6256z m297.8304 165.5296h154.4704a12.8 12.8 0 0 1 12.8 12.8V792.6272a12.8 12.8 0 0 1-12.8 12.8h-154.4704a12.8 12.8 0 0 1-12.8-12.8v-276.4288c0-7.0144 5.7856-12.8 12.8-12.8z m0-539.8016h154.4704a12.8 12.8 0 0 1 12.8 12.8v276.3776a12.8 12.8 0 0 1-12.8 12.8h-154.4704a12.8 12.8 0 0 1-12.8-12.8v-276.3776c0-7.0656 5.7856-12.8 12.8-12.8z"  horiz-adv-x="1024" />

    
    <glyph glyph-name="set" unicode="&#58881;" d="M273.682 638.222c0-72.096 39.16-138.7 102.753-174.735 63.594-36.048 141.938-36.048 205.533 0 63.58 36.035 102.752 102.64 102.752 174.735C684.721 749.667 592.711 840 479.202 840c-113.51 0-205.52-90.333-205.52-201.778z m0 0M533.854 146.97699999999998c0 88.244 34.172 167.885 88.887 228.129a475.022 475.022 0 0 1-144.382 22.86C219.131 397.965 8.99 191.66600000000005 8.99-62.837999999999965h598.85c-47.789 59.891-73.836 133.738-73.986 209.815z m0 0M1014.795 109.83399999999995l0.215 76.869s-51.691 10.051-52.521 13.439c-0.984 3.729-2.029 7.432-3.188 11.096 6.07 11.021 35.166 35.217 35.166 35.217l-58.316 76.24s-37.787-30.557-47.17-34.928a146.447 146.447 0 0 1-13.842 4.498c-5.076 1.258-19.121 50.115-19.121 50.115l-78.443 0.631s-8.477-47.346-21.186-50.607c-4.232-1.248-8.477-2.771-12.709-4.711-9.396 4.508-47.156 35.492-47.156 35.492l-58.33-77.498s29.234-28.906 31.211-38.605a155.347 155.347 0 0 1-3.463-9.283 577.59 577.59 0 0 0-48.215-11.234l0.139-76.869s41.514-8.465 49.424-15.316c1.625-4.447 3.525-8.742 5.504-12.973-9.598-11.777-35.154-31.326-35.154-31.326l60.156-76.883s47.232 30.027 54.99 31.754a172.736 172.736 0 0 1 11.791-4.572c7.129-2.432 12.154-47.207 12.154-47.207l78.367-0.201s2.609 43.943 8.389 45.67a162.95 162.95 0 0 1 16.678 6.109c6.563-2.508 37.559-32.861 37.559-32.861l77.512 77.498s-28.729 19.475-36.703 30.016a157.702 157.702 0 0 1 5.934 13.439c2.467 7.216 50.328 16.991 50.328 16.991m-199.461-58.293c-35.328 0-67.977 18.504-85.66 48.543-17.658 30.053-17.658 67.07 0 97.111 17.684 30.051 50.332 48.566 85.66 48.566 54.641 0 98.926-43.479 98.926-97.109 0-53.644-44.285-97.111-98.926-97.111"  horiz-adv-x="1024" />

    
    <glyph glyph-name="caogao" unicode="&#59039;" d="M996.185156 50.518147H510.705302a31.815568 31.815568 0 1 0 0 63.619554h485.352453a31.809777 31.809777 0 1 0 0.127401-63.619554M846.349698-127.994174H235.56492a31.815568 31.815568 0 1 0 0 63.619554h610.784778a31.815568 31.815568 0 1 0 0-63.619554M273.333601 39.712205a31.178562 31.178562 0 0 0-17.616119 5.33927L33.402293 191.887212a31.954551 31.954551 0 0 0-9.184473 43.895523L424.813693 850.702264A99.917329 99.917329 0 0 0 563.924281 879.205399l110.781182-73.800072a99.222414 99.222414 0 0 0 28.202005-137.072168L300.006791 54.085382a31.537601 31.537601 0 0 0-20.291545-13.736171 26.499461 26.499461 0 0 0-6.381645-0.637006zM95.052918 227.513236l169.26994-111.84672 384.983427 587.41244a35.90399 35.90399 0 0 1-10.076281 49.362195l-110.839091 73.834818a35.521786 35.521786 0 0 1-19.909342 5.976277 36.181956 36.181956 0 0 1-30.252007-16.284197zM31.873478-70.594118A31.82715 31.82715 0 0 0 0.092655-36.49691l19.144934 257.118896a31.937178 31.937178 0 0 0 63.700628-4.702264l-15.056512-203.575623 192.329567 87.918447a31.783138 31.783138 0 1 0 26.545788-57.759096c-9.196054-4.192659-223.716603-102.303207-241.587524-110.445306a34.745797 34.745797 0 0 0-13.296058-2.652262M627.868129 583.124883a31.838732 31.838732 0 0 0-17.488718 5.21187L394.040499 729.451015a31.82715 31.82715 0 1 0 34.965853 53.184233l216.362076-141.10268a31.792404 31.792404 0 0 0-17.488717-58.396103"  horiz-adv-x="1027" />

    
    <glyph glyph-name="shuju" unicode="&#59121;" d="M160 288c-19.2 0-32-12.8-32-32v-128c0-19.2 12.8-32 32-32h64c19.2 0 32 12.8 32 32V256c0 19.2-12.8 32-32 32h-64z m0 64h64c54.4 0 96-41.6 96-96v-128c0-54.4-41.6-96-96-96h-64c-54.4 0-96 41.6-96 96V256c0 54.4 41.6 96 96 96z m320 128h64c54.4 0 96-41.6 96-96v-256c0-54.4-41.6-96-96-96h-64c-54.4 0-96 41.6-96 96V384c0 54.4 41.6 96 96 96z m0-64c-19.2 0-32-12.8-32-32v-256c0-19.2 12.8-32 32-32h64c19.2 0 32 12.8 32 32V384c0 19.2-12.8 32-32 32h-64z m320 320h64c54.4 0 96-41.6 96-96v-512c0-54.4-41.6-96-96-96h-64c-54.4 0-96 41.6-96 96V640c0 54.4 41.6 96 96 96z m0-64c-19.2 0-32-12.8-32-32v-512c0-19.2 12.8-32 32-32h64c19.2 0 32 12.8 32 32V640c0 19.2-12.8 32-32 32h-64z"  horiz-adv-x="1024" />

    
    <glyph glyph-name="yuandiankuang" unicode="&#59000;" d="M542.896551-121.904764C819.827785-121.904764 1044.177342 104.67712700000004 1044.177342 384 1044.177342 663.322873 819.827785 889.904762 542.896551 889.904762 265.965318 889.904762 41.615764 663.322873 41.615764 384 41.615764 104.67712700000004 265.965318-121.904764 542.896551-121.904764L542.896551-121.904764ZM542.896551-48.76190699999995C306.524001-48.76190699999995 114.758621 144.91158700000005 114.758621 384 114.758621 623.0884120000001 306.524001 816.761905 542.896551 816.761905 779.269105 816.761905 971.034485 623.0884120000001 971.034485 384 971.034485 144.91158700000005 779.269105-48.76190699999995 542.896551-48.76190699999995L542.896551-48.76190699999995ZM342.228114 384a2.7708 2.7435 90 1 1 401.334857 0 2.7708 2.7435 90 1 1-401.334857 0Z"  horiz-adv-x="1098" />

    


  </font>
</defs>
</svg>
